#usda 1.0
(
    defaultPrim = "ShakerCap"
    metersPerUnit = 1
    upAxis = "Z"
    doc = "Cocktail shaker physics asset. Meters. PhysX SDF collision. Metallic PBR material (StainlessSteel; Aluminum alternate under Looks)."
)

def Xform "ShakerCap" (
    prepend apiSchemas = ["PhysicsRigidBodyAPI", "PhysicsMassAPI"]
)
{
    bool physics:rigidBodyEnabled = 1
    float physics:mass = 0.0583
    point3f physics:centerOfMass = (0, 0, 0)
    float3 physics:diagonalInertia = (2.911e-05, 2.911e-05, 4.6322e-05)
    quatf physics:principalAxes = (1, 0, 0, 0)
    def Scope "Looks"
    {
        def Material "StainlessSteel"
        {
            token outputs:surface.connect = </ShakerCap/Looks/StainlessSteel/Shader.outputs:surface>
            def Shader "Shader"
            {
                uniform token info:id = "UsdPreviewSurface"
                color3f inputs:diffuseColor = (0.56, 0.57, 0.577)
                float inputs:metallic = 1
                float inputs:roughness = 0.32
                token outputs:surface
            }
        }
        def Material "Aluminum"
        {
            token outputs:surface.connect = </ShakerCap/Looks/Aluminum/Shader.outputs:surface>
            def Shader "Shader"
            {
                uniform token info:id = "UsdPreviewSurface"
                color3f inputs:diffuseColor = (0.912, 0.914, 0.92)
                float inputs:metallic = 1
                float inputs:roughness = 0.28
                token outputs:surface
            }
        }
    }
    def Mesh "Geom" (
        prepend apiSchemas = ["PhysicsCollisionAPI", "PhysicsMeshCollisionAPI", "PhysxCollisionAPI", "PhysxSDFMeshCollisionAPI", "MaterialBindingAPI"]
    )
    {
        rel material:binding = </ShakerCap/Looks/StainlessSteel>
        bool physics:collisionEnabled = 1
        uniform token physics:approximation = "sdf"
        float physxCollision:contactOffset = 0.002
        float physxCollision:restOffset = 0.0005
        int physxSDFMeshCollision:sdfResolution = 256
        float3[] extent = [(-0.029985, -0.029996, -0.01724), (0.03, 0.029996, 0.01776)]
        int[] faceVertexCounts = [3, 3, 3, 3, 3, 3, 3, 3, 3, 3, 3, 3, 3, 3, 3, 3, 3, 3, 3, 3, 3, 3, 3, 3, 3, 3, 3, 3, 3, 3, 3, 3, 3, 3, 3, 3, 3, 3, 3, 3, 3, 3, 3, 3, 3, 3, 3, 3, 3, 3, 3, 3, 3, 3, 3, 3, 3, 3, 3, 3, 3, 3, 3, 3, 3, 3, 3, 3, 3, 3, 3, 3, 3, 3, 3, 3, 3, 3, 3, 3, 3, 3, 3, 3, 3, 3, 3, 3, 3, 3, 3, 3, 3, 3, 3, 3, 3, 3, 3, 3, 3, 3, 3, 3, 3, 3, 3, 3, 3, 3, 3, 3, 3, 3, 3, 3, 3, 3, 3, 3, 3, 3, 3, 3, 3, 3, 3, 3, 3, 3, 3, 3, 3, 3, 3, 3, 3, 3, 3, 3, 3, 3, 3, 3, 3, 3, 3, 3, 3, 3, 3, 3, 3, 3, 3, 3, 3, 3, 3, 3, 3, 3, 3, 3, 3, 3, 3, 3, 3, 3, 3, 3, 3, 3, 3, 3, 3, 3, 3, 3, 3, 3, 3, 3, 3, 3, 3, 3, 3, 3, 3, 3, 3, 3, 3, 3, 3, 3, 3, 3, 3, 3, 3, 3, 3, 3, 3, 3, 3, 3, 3, 3, 3, 3, 3, 3, 3, 3, 3, 3, 3, 3, 3, 3, 3, 3, 3, 3, 3, 3, 3, 3, 3, 3, 3, 3, 3, 3, 3, 3, 3, 3, 3, 3, 3, 3, 3, 3, 3, 3, 3, 3, 3, 3, 3, 3, 3, 3, 3, 3, 3, 3, 3, 3, 3, 3, 3, 3, 3, 3, 3, 3, 3, 3, 3, 3, 3, 3, 3, 3, 3, 3, 3, 3, 3, 3, 3, 3, 3, 3, 3, 3, 3, 3, 3, 3, 3, 3, 3, 3, 3, 3, 3, 3, 3, 3, 3, 3, 3, 3, 3, 3, 3, 3, 3, 3, 3, 3, 3, 3, 3, 3, 3, 3, 3, 3, 3, 3, 3, 3, 3, 3, 3, 3, 3, 3, 3, 3, 3, 3, 3, 3, 3, 3, 3, 3, 3, 3, 3, 3, 3, 3, 3, 3, 3, 3, 3, 3, 3, 3, 3, 3, 3, 3, 3, 3, 3, 3, 3, 3, 3, 3, 3, 3, 3, 3, 3, 3, 3, 3, 3, 3, 3, 3, 3, 3, 3, 3, 3, 3, 3, 3, 3, 3, 3, 3, 3, 3, 3, 3, 3, 3, 3, 3, 3, 3, 3, 3, 3, 3, 3, 3, 3, 3, 3, 3, 3, 3, 3, 3, 3, 3, 3, 3, 3, 3, 3, 3, 3, 3, 3, 3, 3, 3, 3, 3, 3, 3, 3, 3, 3, 3, 3, 3, 3, 3, 3, 3, 3, 3, 3, 3, 3, 3, 3, 3, 3, 3, 3, 3, 3, 3, 3, 3, 3, 3, 3, 3, 3, 3, 3, 3, 3, 3, 3, 3, 3, 3, 3, 3, 3, 3, 3, 3, 3, 3, 3, 3, 3, 3, 3, 3, 3, 3, 3, 3, 3, 3, 3, 3, 3, 3, 3, 3, 3, 3, 3, 3, 3, 3, 3, 3, 3, 3, 3, 3, 3, 3, 3, 3, 3, 3, 3, 3, 3, 3, 3, 3, 3, 3, 3, 3, 3, 3, 3, 3, 3, 3, 3, 3, 3, 3, 3, 3, 3, 3, 3, 3, 3, 3, 3, 3, 3, 3, 3, 3, 3, 3, 3, 3, 3, 3, 3, 3, 3, 3, 3, 3, 3, 3, 3, 3, 3, 3, 3, 3, 3, 3, 3, 3, 3, 3, 3, 3, 3, 3, 3, 3, 3, 3, 3, 3, 3, 3, 3, 3, 3, 3, 3, 3, 3, 3, 3, 3, 3, 3, 3, 3, 3, 3, 3, 3, 3, 3, 3, 3, 3, 3, 3, 3, 3, 3, 3, 3, 3, 3, 3, 3, 3, 3, 3, 3, 3, 3, 3, 3, 3, 3, 3, 3, 3, 3, 3, 3, 3, 3, 3, 3, 3, 3, 3, 3, 3, 3, 3, 3, 3, 3, 3, 3, 3, 3, 3, 3, 3, 3, 3, 3, 3, 3, 3, 3, 3, 3, 3, 3, 3, 3, 3, 3, 3, 3, 3, 3, 3, 3, 3, 3, 3, 3, 3, 3, 3, 3, 3, 3, 3, 3, 3, 3, 3, 3, 3, 3, 3, 3, 3, 3, 3, 3, 3, 3, 3, 3, 3, 3, 3, 3, 3, 3, 3, 3, 3, 3, 3, 3, 3, 3, 3, 3, 3, 3, 3, 3, 3, 3, 3, 3, 3, 3, 3, 3, 3, 3, 3, 3, 3, 3, 3, 3, 3, 3, 3, 3, 3, 3, 3, 3, 3, 3, 3, 3, 3, 3, 3, 3, 3, 3, 3, 3, 3, 3, 3, 3, 3, 3, 3, 3, 3, 3, 3, 3, 3, 3]
        int[] faceVertexIndices = [0, 1, 2, 2, 1, 3, 2, 3, 4, 1, 0, 5, 5, 0, 6, 5, 6, 7, 7, 6, 8, 7, 8, 9, 9, 8, 10, 9, 10, 11, 11, 10, 12, 11, 12, 13, 13, 12, 14, 13, 14, 15, 15, 14, 16, 15, 16, 17, 17, 16, 18, 17, 18, 19, 19, 18, 20, 19, 20, 21, 21, 20, 22, 21, 22, 23, 23, 22, 24, 23, 24, 25, 25, 24, 26, 25, 26, 27, 27, 26, 28, 27, 28, 29, 29, 28, 30, 29, 30, 31, 31, 30, 32, 31, 32, 33, 33, 32, 34, 33, 34, 35, 35, 34, 36, 35, 36, 37, 37, 36, 38, 37, 38, 39, 39, 38, 40, 39, 40, 41, 41, 40, 42, 41, 42, 43, 43, 42, 44, 43, 44, 45, 45, 44, 46, 45, 46, 47, 47, 46, 48, 47, 48, 49, 49, 48, 50, 49, 50, 51, 51, 50, 52, 51, 52, 53, 53, 52, 54, 53, 54, 55, 55, 54, 56, 55, 56, 57, 57, 56, 58, 57, 58, 59, 59, 58, 60, 59, 60, 61, 61, 60, 62, 61, 62, 63, 63, 62, 64, 63, 64, 65, 65, 64, 66, 65, 66, 67, 67, 66, 68, 67, 68, 69, 69, 68, 70, 69, 70, 71, 71, 70, 72, 71, 72, 73, 73, 72, 74, 73, 74, 75, 75, 74, 76, 75, 76, 77, 77, 76, 78, 77, 78, 79, 79, 78, 80, 79, 80, 81, 81, 80, 82, 81, 82, 83, 83, 82, 84, 83, 84, 85, 85, 84, 86, 85, 86, 87, 87, 86, 88, 87, 88, 89, 89, 88, 90, 89, 90, 91, 91, 90, 92, 91, 92, 93, 93, 92, 94, 93, 94, 95, 95, 94, 96, 95, 96, 97, 97, 96, 98, 97, 98, 99, 99, 98, 100, 99, 100, 101, 101, 100, 102, 102, 100, 103, 102, 103, 104, 104, 103, 105, 104, 105, 106, 106, 105, 107, 106, 107, 108, 108, 107, 109, 108, 109, 110, 110, 109, 111, 110, 111, 112, 112, 111, 113, 112, 113, 114, 114, 113, 115, 114, 115, 116, 116, 115, 117, 116, 117, 118, 118, 117, 119, 118, 119, 120, 120, 119, 121, 120, 121, 122, 122, 121, 123, 122, 123, 124, 124, 123, 125, 124, 125, 126, 126, 125, 127, 126, 127, 128, 128, 127, 129, 128, 129, 130, 130, 129, 131, 130, 131, 132, 132, 131, 133, 132, 133, 134, 134, 133, 135, 134, 135, 136, 136, 135, 137, 136, 137, 138, 138, 137, 139, 138, 139, 140, 140, 139, 141, 140, 141, 142, 142, 141, 143, 142, 143, 144, 144, 143, 145, 144, 145, 146, 146, 145, 147, 146, 147, 148, 148, 147, 149, 148, 149, 150, 150, 149, 151, 150, 151, 152, 152, 151, 153, 152, 153, 154, 154, 153, 155, 154, 155, 156, 156, 155, 157, 156, 157, 158, 158, 157, 159, 158, 159, 160, 160, 159, 161, 160, 161, 162, 162, 161, 163, 162, 163, 164, 164, 163, 165, 164, 165, 166, 166, 165, 167, 166, 167, 168, 168, 167, 169, 168, 169, 170, 170, 169, 171, 170, 171, 172, 172, 171, 173, 172, 173, 174, 174, 173, 175, 174, 175, 176, 176, 175, 177, 176, 177, 178, 178, 177, 179, 178, 179, 180, 180, 179, 181, 180, 181, 182, 182, 181, 183, 182, 183, 184, 184, 183, 185, 184, 185, 186, 186, 185, 187, 186, 187, 188, 188, 187, 189, 188, 189, 190, 190, 189, 191, 190, 191, 192, 192, 191, 193, 192, 193, 194, 194, 193, 195, 194, 195, 196, 196, 195, 197, 196, 197, 198, 198, 197, 199, 198, 199, 4, 4, 199, 2, 4, 3, 200, 200, 3, 1, 200, 1, 201, 201, 1, 5, 201, 5, 202, 202, 5, 7, 202, 7, 203, 203, 7, 9, 203, 9, 204, 204, 9, 11, 204, 11, 205, 205, 11, 13, 205, 13, 206, 206, 13, 15, 206, 15, 207, 207, 15, 17, 207, 17, 208, 208, 17, 19, 208, 19, 209, 209, 19, 21, 209, 21, 210, 210, 21, 23, 210, 23, 211, 211, 23, 25, 211, 25, 212, 212, 25, 27, 212, 27, 213, 213, 27, 29, 213, 29, 214, 214, 29, 31, 214, 31, 215, 215, 31, 33, 215, 33, 216, 216, 33, 35, 216, 35, 217, 217, 35, 37, 217, 37, 218, 218, 37, 39, 218, 39, 219, 219, 39, 41, 219, 41, 220, 220, 41, 43, 220, 43, 221, 221, 43, 45, 221, 45, 222, 222, 45, 47, 222, 47, 223, 223, 47, 49, 223, 49, 224, 224, 49, 51, 224, 51, 53, 224, 53, 225, 225, 53, 55, 225, 55, 226, 226, 55, 57, 226, 57, 227, 227, 57, 59, 227, 59, 228, 228, 59, 61, 228, 61, 229, 229, 61, 63, 229, 63, 230, 230, 63, 65, 230, 65, 231, 231, 65, 67, 231, 67, 232, 232, 67, 69, 232, 69, 233, 233, 69, 71, 233, 71, 234, 234, 71, 73, 234, 73, 235, 235, 73, 75, 235, 75, 236, 236, 75, 77, 236, 77, 237, 237, 77, 79, 237, 79, 238, 238, 79, 81, 238, 81, 239, 239, 81, 83, 239, 83, 240, 240, 83, 85, 240, 85, 241, 241, 85, 87, 241, 87, 242, 242, 87, 89, 242, 89, 243, 243, 89, 91, 243, 91, 244, 244, 91, 93, 244, 93, 245, 245, 93, 95, 245, 95, 246, 246, 95, 97, 246, 97, 247, 247, 97, 99, 247, 99, 248, 248, 99, 101, 248, 101, 102, 248, 102, 249, 249, 102, 104, 249, 104, 250, 250, 104, 106, 250, 106, 251, 251, 106, 108, 251, 108, 252, 252, 108, 110, 252, 110, 253, 253, 110, 112, 253, 112, 254, 254, 112, 114, 254, 114, 255, 255, 114, 116, 255, 116, 256, 256, 116, 118, 256, 118, 257, 257, 118, 120, 257, 120, 258, 258, 120, 122, 258, 122, 259, 259, 122, 124, 259, 124, 260, 260, 124, 126, 260, 126, 261, 261, 126, 128, 261, 128, 262, 262, 128, 130, 262, 130, 263, 263, 130, 132, 263, 132, 264, 264, 132, 134, 264, 134, 265, 265, 134, 136, 265, 136, 266, 266, 136, 138, 266, 138, 267, 267, 138, 140, 267, 140, 268, 268, 140, 142, 268, 142, 269, 269, 142, 144, 269, 144, 270, 270, 144, 146, 270, 146, 271, 271, 146, 148, 271, 148, 272, 272, 148, 150, 272, 150, 273, 273, 150, 152, 273, 152, 154, 273, 154, 274, 274, 154, 156, 274, 156, 275, 275, 156, 158, 275, 158, 276, 276, 158, 160, 276, 160, 277, 277, 160, 162, 277, 162, 278, 278, 162, 164, 278, 164, 279, 279, 164, 166, 279, 166, 280, 280, 166, 168, 280, 168, 281, 281, 168, 170, 281, 170, 282, 282, 170, 172, 282, 172, 283, 283, 172, 174, 283, 174, 284, 284, 174, 176, 284, 176, 285, 285, 176, 178, 285, 178, 286, 286, 178, 180, 286, 180, 287, 287, 180, 182, 287, 182, 288, 288, 182, 184, 288, 184, 289, 289, 184, 186, 289, 186, 290, 290, 186, 188, 290, 188, 291, 291, 188, 190, 291, 190, 292, 292, 190, 192, 292, 192, 293, 293, 192, 194, 293, 194, 294, 294, 194, 196, 294, 196, 295, 295, 196, 198, 295, 198, 296, 296, 198, 4, 296, 4, 200, 296, 200, 297, 297, 200, 201, 297, 201, 298, 298, 201, 202, 298, 202, 299, 299, 202, 203, 299, 203, 300, 300, 203, 204, 300, 204, 301, 301, 204, 205, 301, 205, 302, 302, 205, 206, 302, 206, 303, 303, 206, 207, 303, 207, 304, 304, 207, 208, 304, 208, 305, 305, 208, 209, 305, 209, 306, 306, 209, 210, 306, 210, 307, 307, 210, 211, 307, 211, 308, 308, 211, 212, 308, 212, 309, 309, 212, 213, 309, 213, 310, 310, 213, 214, 310, 214, 311, 311, 214, 215, 311, 215, 312, 312, 215, 216, 312, 216, 313, 313, 216, 217, 313, 217, 314, 314, 217, 218, 314, 218, 315, 315, 218, 219, 315, 219, 316, 316, 219, 220, 316, 220, 317, 317, 220, 221, 317, 221, 318, 318, 221, 222, 318, 222, 319, 319, 222, 223, 319, 223, 320, 320, 223, 224, 320, 224, 321, 321, 224, 225, 321, 225, 322, 322, 225, 226, 322, 226, 323, 323, 226, 227, 323, 227, 324, 324, 227, 228, 324, 228, 325, 325, 228, 229, 325, 229, 326, 326, 229, 230, 326, 230, 327, 327, 230, 231, 327, 231, 328, 328, 231, 232, 328, 232, 329, 329, 232, 233, 329, 233, 330, 330, 233, 234, 330, 234, 331, 331, 234, 235, 331, 235, 332, 332, 235, 236, 332, 236, 333, 333, 236, 237, 333, 237, 334, 334, 237, 238, 334, 238, 335, 335, 238, 239, 335, 239, 336, 336, 239, 240, 336, 240, 337, 337, 240, 241, 337, 241, 338, 338, 241, 242, 338, 242, 339, 339, 242, 243, 339, 243, 340, 340, 243, 244, 340, 244, 341, 341, 244, 245, 341, 245, 342, 342, 245, 246, 342, 246, 343, 343, 246, 247, 343, 247, 344, 344, 247, 248, 344, 248, 249, 344, 249, 345, 345, 249, 250, 345, 250, 346, 346, 250, 251, 346, 251, 347, 347, 251, 252, 347, 252, 348, 348, 252, 253, 348, 253, 349, 349, 253, 254, 349, 254, 350, 350, 254, 255, 350, 255, 351, 351, 255, 256, 351, 256, 352, 352, 256, 257, 352, 257, 353, 353, 257, 258, 353, 258, 354, 354, 258, 259, 354, 259, 355, 355, 259, 260, 355, 260, 356, 356, 260, 261, 356, 261, 357, 357, 261, 262, 357, 262, 358, 358, 262, 263, 358, 263, 359, 359, 263, 264, 359, 264, 360, 360, 264, 265, 360, 265, 361, 361, 265, 266, 361, 266, 362, 362, 266, 267, 362, 267, 363, 363, 267, 268, 363, 268, 364, 364, 268, 269, 364, 269, 365, 365, 269, 270, 365, 270, 366, 366, 270, 271, 366, 271, 367, 367, 271, 272, 367, 272, 368, 368, 272, 273, 368, 273, 369, 369, 273, 274, 369, 274, 370, 370, 274, 275, 370, 275, 371, 371, 275, 276, 371, 276, 372, 372, 276, 277, 372, 277, 373, 373, 277, 278, 373, 278, 374, 374, 278, 279, 374, 279, 375, 375, 279, 280, 375, 280, 376, 376, 280, 281, 376, 281, 377, 377, 281, 282, 377, 282, 378, 378, 282, 283, 378, 283, 379, 379, 283, 284, 379, 284, 380, 380, 284, 285, 380, 285, 381, 381, 285, 286, 381, 286, 382, 382, 286, 287, 382, 287, 383, 383, 287, 288, 383, 288, 384, 384, 288, 289, 384, 289, 385, 385, 289, 290, 385, 290, 386, 386, 290, 291, 386, 291, 387, 387, 291, 292, 387, 292, 388, 388, 292, 293, 388, 293, 389, 389, 293, 294, 389, 294, 390, 390, 294, 295, 390, 295, 391, 391, 295, 296, 391, 296, 297, 298, 0, 297, 297, 0, 2, 297, 2, 199, 0, 298, 6, 6, 298, 299, 6, 299, 8, 8, 299, 300, 8, 300, 10, 10, 300, 301, 10, 301, 12, 12, 301, 302, 12, 302, 14, 14, 302, 303, 14, 303, 16, 16, 303, 304, 16, 304, 18, 18, 304, 305, 18, 305, 20, 20, 305, 306, 20, 306, 22, 22, 306, 307, 22, 307, 24, 24, 307, 308, 24, 308, 26, 26, 308, 309, 26, 309, 28, 28, 309, 310, 28, 310, 30, 30, 310, 311, 30, 311, 32, 32, 311, 312, 32, 312, 34, 34, 312, 313, 34, 313, 36, 36, 313, 314, 36, 314, 38, 38, 314, 315, 38, 315, 40, 40, 315, 316, 40, 316, 42, 42, 316, 317, 42, 317, 44, 44, 317, 318, 44, 318, 46, 46, 318, 319, 46, 319, 48, 48, 319, 320, 48, 320, 50, 50, 320, 321, 50, 321, 52, 52, 321, 54, 54, 321, 322, 54, 322, 56, 56, 322, 323, 56, 323, 58, 58, 323, 324, 58, 324, 60, 60, 324, 325, 60, 325, 62, 62, 325, 326, 62, 326, 64, 64, 326, 327, 64, 327, 66, 66, 327, 328, 66, 328, 68, 68, 328, 329, 68, 329, 70, 70, 329, 330, 70, 330, 72, 72, 330, 331, 72, 331, 74, 74, 331, 332, 74, 332, 76, 76, 332, 333, 76, 333, 78, 78, 333, 334, 78, 334, 80, 80, 334, 335, 80, 335, 82, 82, 335, 336, 82, 336, 84, 84, 336, 337, 84, 337, 86, 86, 337, 338, 86, 338, 88, 88, 338, 339, 88, 339, 90, 90, 339, 340, 90, 340, 92, 92, 340, 341, 92, 341, 94, 94, 341, 342, 94, 342, 96, 96, 342, 343, 96, 343, 98, 98, 343, 344, 98, 344, 100, 100, 344, 345, 100, 345, 103, 103, 345, 105, 105, 345, 346, 105, 346, 107, 107, 346, 347, 107, 347, 109, 109, 347, 348, 109, 348, 111, 111, 348, 349, 111, 349, 113, 113, 349, 350, 113, 350, 115, 115, 350, 351, 115, 351, 117, 117, 351, 352, 117, 352, 119, 119, 352, 353, 119, 353, 121, 121, 353, 354, 121, 354, 123, 123, 354, 355, 123, 355, 125, 125, 355, 356, 125, 356, 127, 127, 356, 357, 127, 357, 129, 129, 357, 358, 129, 358, 131, 131, 358, 359, 131, 359, 133, 133, 359, 360, 133, 360, 135, 135, 360, 361, 135, 361, 137, 137, 361, 362, 137, 362, 139, 139, 362, 363, 139, 363, 141, 141, 363, 364, 141, 364, 143, 143, 364, 365, 143, 365, 145, 145, 365, 366, 145, 366, 147, 147, 366, 367, 147, 367, 149, 149, 367, 368, 149, 368, 151, 151, 368, 153, 153, 368, 369, 153, 369, 155, 155, 369, 370, 155, 370, 157, 157, 370, 371, 157, 371, 159, 159, 371, 372, 159, 372, 161, 161, 372, 373, 161, 373, 163, 163, 373, 374, 163, 374, 165, 165, 374, 375, 165, 375, 167, 167, 375, 376, 167, 376, 169, 169, 376, 377, 169, 377, 171, 171, 377, 378, 171, 378, 173, 173, 378, 379, 173, 379, 175, 175, 379, 380, 175, 380, 177, 177, 380, 381, 177, 381, 179, 179, 381, 382, 179, 382, 181, 181, 382, 383, 181, 383, 183, 183, 383, 384, 183, 384, 185, 185, 384, 385, 185, 385, 187, 187, 385, 386, 187, 386, 189, 189, 386, 387, 189, 387, 191, 191, 387, 388, 191, 388, 193, 193, 388, 389, 193, 389, 195, 195, 389, 390, 195, 390, 197, 197, 390, 391, 197, 391, 199, 199, 391, 297]
        point3f[] points = [(0.028742, 0.001827, -0.01724), (0.029942, 0.001865, -0.01724), (0.0288, 0, -0.01724), (0.03, 0, -0.01724), (0.029942, -0.001865, -0.01724), (0.029768, 0.003723, -0.01724), (0.028568, 0.003646, -0.01724), (0.029479, 0.005566, -0.01724), (0.02828, 0.00545, -0.01724), (0.029076, 0.007388, -0.01724), (0.027877, 0.007233, -0.01724), (0.02856, 0.009182, -0.01724), (0.027362, 0.008987, -0.01724), (0.027934, 0.01094, -0.01724), (0.026737, 0.010704, -0.01724), (0.0272, 0.012655, -0.01724), (0.026004, 0.012378, -0.01724), (0.026361, 0.014322, -0.01724), (0.025167, 0.014002, -0.01724), (0.025419, 0.015933, -0.01724), (0.024228, 0.01557, -0.01724), (0.02438, 0.017482, -0.01724), (0.023192, 0.017076, -0.01724), (0.023246, 0.018964, -0.01724), (0.022062, 0.018512, -0.01724), (0.022022, 0.020373, -0.01724), (0.020844, 0.019874, -0.01724), (0.020713, 0.021702, -0.01724), (0.019541, 0.021156, -0.01724), (0.019323, 0.022948, -0.01724), (0.01816, 0.022353, -0.01724), (0.017859, 0.024105, -0.01724), (0.016706, 0.02346, -0.01724), (0.016326, 0.025169, -0.01724), (0.015184, 0.024472, -0.01724), (0.01473, 0.026135, -0.01724), (0.013601, 0.025386, -0.01724), (0.013077, 0.027, -0.01724), (0.011964, 0.026197, -0.01724), (0.011373, 0.027761, -0.01724), (0.010278, 0.026903, -0.01724), (0.009625, 0.028414, -0.01724), (0.008551, 0.027501, -0.01724), (0.00784, 0.028958, -0.01724), (0.00679, 0.027988, -0.01724), (0.006024, 0.029389, -0.01724), (0.005001, 0.028362, -0.01724), (0.004185, 0.029707, -0.01724), (0.003192, 0.028623, -0.01724), (0.002331, 0.029909, -0.01724), (0.00137, 0.028767, -0.01724), (0.000467, 0.029996, -0.01724), (-0.000457, 0.028796, -0.01724), (-0.001399, 0.029967, -0.01724), (-0.002282, 0.028709, -0.01724), (-0.00326, 0.029822, -0.01724), (-0.004099, 0.028507, -0.01724), (-0.005107, 0.029562, -0.01724), (-0.005898, 0.02819, -0.01724), (-0.006935, 0.029187, -0.01724), (-0.007674, 0.027759, -0.01724), (-0.008736, 0.0287, -0.01724), (-0.00942, 0.027216, -0.01724), (-0.010504, 0.028101, -0.01724), (-0.011127, 0.026564, -0.01724), (-0.012231, 0.027394, -0.01724), (-0.012789, 0.025805, -0.01724), (-0.01391, 0.02658, -0.01724), (-0.0144, 0.024942, -0.01724), (-0.015535, 0.025664, -0.01724), (-0.015953, 0.023978, -0.01724), (-0.017101, 0.024649, -0.01724), (-0.017442, 0.022918, -0.01724), (-0.0186, 0.023538, -0.01724), (-0.01886, 0.021766, -0.01724), (-0.020028, 0.022336, -0.01724), (-0.020202, 0.020526, -0.01724), (-0.021378, 0.021048, -0.01724), (-0.021464, 0.019203, -0.01724), (-0.022645, 0.019678, -0.01724), (-0.022638, 0.017803, -0.01724), (-0.023824, 0.018232, -0.01724), (-0.023722, 0.016331, -0.01724), (-0.024912, 0.016716, -0.01724), (-0.02471, 0.014794, -0.01724), (-0.025903, 0.015134, -0.01724), (-0.025598, 0.013197, -0.01724), (-0.026793, 0.013495, -0.01724), (-0.026384, 0.011547, -0.01724), (-0.027581, 0.011803, -0.01724), (-0.027063, 0.00985, -0.01724), (-0.028261, 0.010066, -0.01724), (-0.027633, 0.008114, -0.01724), (-0.028832, 0.008289, -0.01724), (-0.028092, 0.006345, -0.01724), (-0.029292, 0.006481, -0.01724), (-0.028438, 0.00455, -0.01724), (-0.029638, 0.004647, -0.01724), (-0.02867, 0.002738, -0.01724), (-0.029869, 0.002795, -0.01724), (-0.028785, 0.000914, -0.01724), (-0.029985, 0.000933, -0.01724), (-0.029985, -0.000933, -0.01724), (-0.028785, -0.000914, -0.01724), (-0.029869, -0.002795, -0.01724), (-0.02867, -0.002738, -0.01724), (-0.029638, -0.004647, -0.01724), (-0.028438, -0.00455, -0.01724), (-0.029292, -0.006481, -0.01724), (-0.028092, -0.006345, -0.01724), (-0.028832, -0.008289, -0.01724), (-0.027633, -0.008114, -0.01724), (-0.028261, -0.010066, -0.01724), (-0.027063, -0.00985, -0.01724), (-0.027581, -0.011803, -0.01724), (-0.026384, -0.011547, -0.01724), (-0.026793, -0.013495, -0.01724), (-0.025598, -0.013197, -0.01724), (-0.025903, -0.015134, -0.01724), (-0.02471, -0.014794, -0.01724), (-0.024912, -0.016716, -0.01724), (-0.023722, -0.016331, -0.01724), (-0.023824, -0.018232, -0.01724), (-0.022638, -0.017803, -0.01724), (-0.022645, -0.019678, -0.01724), (-0.021464, -0.019203, -0.01724), (-0.021378, -0.021048, -0.01724), (-0.020202, -0.020526, -0.01724), (-0.020028, -0.022336, -0.01724), (-0.01886, -0.021766, -0.01724), (-0.0186, -0.023538, -0.01724), (-0.017442, -0.022918, -0.01724), (-0.017101, -0.024649, -0.01724), (-0.015953, -0.023978, -0.01724), (-0.015535, -0.025664, -0.01724), (-0.0144, -0.024942, -0.01724), (-0.01391, -0.02658, -0.01724), (-0.012789, -0.025805, -0.01724), (-0.012231, -0.027394, -0.01724), (-0.011127, -0.026564, -0.01724), (-0.010504, -0.028101, -0.01724), (-0.00942, -0.027216, -0.01724), (-0.008736, -0.0287, -0.01724), (-0.007674, -0.027759, -0.01724), (-0.006935, -0.029187, -0.01724), (-0.005898, -0.02819, -0.01724), (-0.005107, -0.029562, -0.01724), (-0.004099, -0.028507, -0.01724), (-0.00326, -0.029822, -0.01724), (-0.002282, -0.028709, -0.01724), (-0.001399, -0.029967, -0.01724), (-0.000457, -0.028796, -0.01724), (0.000467, -0.029996, -0.01724), (0.00137, -0.028767, -0.01724), (0.002331, -0.029909, -0.01724), (0.003192, -0.028623, -0.01724), (0.004185, -0.029707, -0.01724), (0.005001, -0.028362, -0.01724), (0.006024, -0.029389, -0.01724), (0.00679, -0.027988, -0.01724), (0.00784, -0.028958, -0.01724), (0.008551, -0.027501, -0.01724), (0.009625, -0.028414, -0.01724), (0.010278, -0.026903, -0.01724), (0.011373, -0.027761, -0.01724), (0.011964, -0.026197, -0.01724), (0.013077, -0.027, -0.01724), (0.013601, -0.025386, -0.01724), (0.01473, -0.026135, -0.01724), (0.015184, -0.024472, -0.01724), (0.016326, -0.025169, -0.01724), (0.016706, -0.02346, -0.01724), (0.017859, -0.024105, -0.01724), (0.01816, -0.022353, -0.01724), (0.019323, -0.022948, -0.01724), (0.019541, -0.021156, -0.01724), (0.020713, -0.021702, -0.01724), (0.020844, -0.019874, -0.01724), (0.022022, -0.020373, -0.01724), (0.022062, -0.018512, -0.01724), (0.023246, -0.018964, -0.01724), (0.023192, -0.017076, -0.01724), (0.02438, -0.017482, -0.01724), (0.024228, -0.01557, -0.01724), (0.025419, -0.015933, -0.01724), (0.025167, -0.014002, -0.01724), (0.026361, -0.014322, -0.01724), (0.026004, -0.012378, -0.01724), (0.0272, -0.012655, -0.01724), (0.026737, -0.010704, -0.01724), (0.027934, -0.01094, -0.01724), (0.027362, -0.008987, -0.01724), (0.02856, -0.009182, -0.01724), (0.027877, -0.007233, -0.01724), (0.029076, -0.007388, -0.01724), (0.02828, -0.00545, -0.01724), (0.029479, -0.005566, -0.01724), (0.028568, -0.003646, -0.01724), (0.029768, -0.003723, -0.01724), (0.028742, -0.001827, -0.01724), (0.0275, 0, 0.01776), (0.027442, 0.00178, 0.01776), (0.02727, 0.003553, 0.01776), (0.026982, 0.00531, 0.01776), (0.026582, 0.007046, 0.01776), (0.02607, 0.008752, 0.01776), (0.025449, 0.010421, 0.01776), (0.024721, 0.012046, 0.01776), (0.02389, 0.013621, 0.01776), (0.022958, 0.015139, 0.01776), (0.02193, 0.016593, 0.01776), (0.02081, 0.017978, 0.01776), (0.019602, 0.019287, 0.01776), (0.018313, 0.020516, 0.01776), (0.016946, 0.021658, 0.01776), (0.015509, 0.02271, 0.01776), (0.014006, 0.023666, 0.01776), (0.012445, 0.024523, 0.01776), (0.010832, 0.025277, 0.01776), (0.009173, 0.025925, 0.01776), (0.007475, 0.026464, 0.01776), (0.005747, 0.026893, 0.01776), (0.003994, 0.027208, 0.01776), (0.002224, 0.02741, 0.01776), (0.000445, 0.027496, 0.01776), (-0.001335, 0.027468, 0.01776), (-0.003111, 0.027324, 0.01776), (-0.004873, 0.027065, 0.01776), (-0.006614, 0.026693, 0.01776), (-0.008328, 0.026209, 0.01776), (-0.010007, 0.025614, 0.01776), (-0.011644, 0.024913, 0.01776), (-0.013233, 0.024107, 0.01776), (-0.014765, 0.0232, 0.01776), (-0.016236, 0.022195, 0.01776), (-0.017639, 0.021098, 0.01776), (-0.018967, 0.019912, 0.01776), (-0.020217, 0.018642, 0.01776), (-0.021381, 0.017295, 0.01776), (-0.022456, 0.015875, 0.01776), (-0.023436, 0.014388, 0.01776), (-0.024318, 0.012841, 0.01776), (-0.025098, 0.011239, 0.01776), (-0.025773, 0.009591, 0.01776), (-0.02634, 0.007903, 0.01776), (-0.026796, 0.006181, 0.01776), (-0.02714, 0.004434, 0.01776), (-0.02737, 0.002668, 0.01776), (-0.027486, 0.000891, 0.01776), (-0.027486, -0.000891, 0.01776), (-0.02737, -0.002668, 0.01776), (-0.02714, -0.004434, 0.01776), (-0.026796, -0.006181, 0.01776), (-0.02634, -0.007903, 0.01776), (-0.025773, -0.009591, 0.01776), (-0.025098, -0.011239, 0.01776), (-0.024318, -0.012841, 0.01776), (-0.023436, -0.014388, 0.01776), (-0.022456, -0.015875, 0.01776), (-0.021381, -0.017295, 0.01776), (-0.020217, -0.018642, 0.01776), (-0.018967, -0.019912, 0.01776), (-0.017639, -0.021098, 0.01776), (-0.016236, -0.022195, 0.01776), (-0.014765, -0.0232, 0.01776), (-0.013233, -0.024107, 0.01776), (-0.011644, -0.024913, 0.01776), (-0.010007, -0.025614, 0.01776), (-0.008328, -0.026209, 0.01776), (-0.006614, -0.026693, 0.01776), (-0.004873, -0.027065, 0.01776), (-0.003111, -0.027324, 0.01776), (-0.001335, -0.027468, 0.01776), (0.000445, -0.027496, 0.01776), (0.002224, -0.02741, 0.01776), (0.003994, -0.027208, 0.01776), (0.005747, -0.026893, 0.01776), (0.007475, -0.026464, 0.01776), (0.009173, -0.025925, 0.01776), (0.010832, -0.025277, 0.01776), (0.012445, -0.024523, 0.01776), (0.014006, -0.023666, 0.01776), (0.015509, -0.02271, 0.01776), (0.016946, -0.021658, 0.01776), (0.018313, -0.020516, 0.01776), (0.019602, -0.019287, 0.01776), (0.02081, -0.017978, 0.01776), (0.02193, -0.016593, 0.01776), (0.022958, -0.015139, 0.01776), (0.02389, -0.013621, 0.01776), (0.024721, -0.012046, 0.01776), (0.025449, -0.010421, 0.01776), (0.02607, -0.008752, 0.01776), (0.026582, -0.007046, 0.01776), (0.026982, -0.00531, 0.01776), (0.02727, -0.003553, 0.01776), (0.027442, -0.00178, 0.01776), (0.0263, 0, 0.01776), (0.026242, 0.001738, 0.01776), (0.02607, 0.003469, 0.01776), (0.025784, 0.005184, 0.01776), (0.025385, 0.006877, 0.01776), (0.024875, 0.00854, 0.01776), (0.024256, 0.010165, 0.01776), (0.023531, 0.011746, 0.01776), (0.022704, 0.013275, 0.01776), (0.021777, 0.014747, 0.01776), (0.020754, 0.016154, 0.01776), (0.019641, 0.01749, 0.01776), (0.018443, 0.01875, 0.01776), (0.017163, 0.019928, 0.01776), (0.015808, 0.021019, 0.01776), (0.014385, 0.022017, 0.01776), (0.012898, 0.02292, 0.01776), (0.011355, 0.023722, 0.01776), (0.009762, 0.024421, 0.01776), (0.008127, 0.025013, 0.01776), (0.006456, 0.025495, 0.01776), (0.004757, 0.025866, 0.01776), (0.003037, 0.026124, 0.01776), (0.001304, 0.026268, 0.01776), (-0.000435, 0.026296, 0.01776), (-0.002172, 0.02621, 0.01776), (-0.003899, 0.026009, 0.01776), (-0.00561, 0.025695, 0.01776), (-0.007296, 0.025268, 0.01776), (-0.00895, 0.02473, 0.01776), (-0.010565, 0.024085, 0.01776), (-0.012133, 0.023334, 0.01776), (-0.013649, 0.022481, 0.01776), (-0.015105, 0.02153, 0.01776), (-0.016495, 0.020484, 0.01776), (-0.017813, 0.01935, 0.01776), (-0.019052, 0.01813, 0.01776), (-0.020209, 0.016831, 0.01776), (-0.021277, 0.015459, 0.01776), (-0.022252, 0.014019, 0.01776), (-0.02313, 0.012517, 0.01776), (-0.023907, 0.010961, 0.01776), (-0.024579, 0.009357, 0.01776), (-0.025144, 0.007712, 0.01776), (-0.025598, 0.006034, 0.01776), (-0.025941, 0.004329, 0.01776), (-0.026171, 0.002605, 0.01776), (-0.026286, 0.00087, 0.01776), (-0.026286, -0.00087, 0.01776), (-0.026171, -0.002605, 0.01776), (-0.025941, -0.004329, 0.01776), (-0.025598, -0.006034, 0.01776), (-0.025144, -0.007712, 0.01776), (-0.024579, -0.009357, 0.01776), (-0.023907, -0.010961, 0.01776), (-0.02313, -0.012517, 0.01776), (-0.022252, -0.014019, 0.01776), (-0.021277, -0.015459, 0.01776), (-0.020209, -0.016831, 0.01776), (-0.019052, -0.01813, 0.01776), (-0.017813, -0.01935, 0.01776), (-0.016495, -0.020484, 0.01776), (-0.015105, -0.02153, 0.01776), (-0.013649, -0.022481, 0.01776), (-0.012133, -0.023334, 0.01776), (-0.010565, -0.024085, 0.01776), (-0.00895, -0.02473, 0.01776), (-0.007296, -0.025268, 0.01776), (-0.00561, -0.025695, 0.01776), (-0.003899, -0.026009, 0.01776), (-0.002172, -0.02621, 0.01776), (-0.000435, -0.026296, 0.01776), (0.001304, -0.026268, 0.01776), (0.003037, -0.026124, 0.01776), (0.004757, -0.025866, 0.01776), (0.006456, -0.025495, 0.01776), (0.008127, -0.025013, 0.01776), (0.009762, -0.024421, 0.01776), (0.011355, -0.023722, 0.01776), (0.012898, -0.02292, 0.01776), (0.014385, -0.022017, 0.01776), (0.015808, -0.021019, 0.01776), (0.017163, -0.019928, 0.01776), (0.018443, -0.01875, 0.01776), (0.019641, -0.01749, 0.01776), (0.020754, -0.016154, 0.01776), (0.021777, -0.014747, 0.01776), (0.022704, -0.013275, 0.01776), (0.023531, -0.011746, 0.01776), (0.024256, -0.010165, 0.01776), (0.024875, -0.00854, 0.01776), (0.025385, -0.006877, 0.01776), (0.025784, -0.005184, 0.01776), (0.02607, -0.003469, 0.01776), (0.026242, -0.001738, 0.01776)]
        uniform bool doubleSided = 1
    }
}
