#usda 1.0
(
    defaultPrim = "ShakerBody"
    metersPerUnit = 1
    upAxis = "Z"
    doc = "Cocktail shaker physics asset. Meters. PhysX SDF collision. Metallic PBR material (StainlessSteel; Aluminum alternate under Looks)."
)

def Xform "ShakerBody" (
    prepend apiSchemas = ["PhysicsRigidBodyAPI", "PhysicsMassAPI"]
)
{
    bool physics:rigidBodyEnabled = 1
    float physics:mass = 0.2633
    point3f physics:centerOfMass = (0, 0, 0)
    float3 physics:diagonalInertia = (0.00083799, 0.00083799, 0.00035519)
    quatf physics:principalAxes = (1, 0, 0, 0)
    def Scope "Looks"
    {
        def Material "StainlessSteel"
        {
            token outputs:surface.connect = </ShakerBody/Looks/StainlessSteel/Shader.outputs:surface>
            def Shader "Shader"
            {
                uniform token info:id = "UsdPreviewSurface"
                color3f inputs:diffuseColor = (0.56, 0.57, 0.577)
                float inputs:metallic = 1
                float inputs:roughness = 0.32
                token outputs:surface
            }
        }
        def Material "Aluminum"
        {
            token outputs:surface.connect = </ShakerBody/Looks/Aluminum/Shader.outputs:surface>
            def Shader "Shader"
            {
                uniform token info:id = "UsdPreviewSurface"
                color3f inputs:diffuseColor = (0.912, 0.914, 0.92)
                float inputs:metallic = 1
                float inputs:roughness = 0.28
                token outputs:surface
            }
        }
    }
    def Mesh "Geom" (
        prepend apiSchemas = ["PhysicsCollisionAPI", "PhysicsMeshCollisionAPI", "PhysxCollisionAPI", "PhysxSDFMeshCollisionAPI", "MaterialBindingAPI"]
    )
    {
        rel material:binding = </ShakerBody/Looks/StainlessSteel>
        bool physics:collisionEnabled = 1
        uniform token physics:approximation = "sdf"
        float physxCollision:contactOffset = 0.002
        float physxCollision:restOffset = 0.0005
        int physxSDFMeshCollision:sdfResolution = 256
        float3[] extent = [(-0.044, -0.044, -0.09209), (0.044, 0.044, 0.08291)]
        int[] faceVertexCounts = [3, 3, 3, 3, 3, 3, 3, 3, 3, 3, 3, 3, 3, 3, 3, 3, 3, 3, 3, 3, 3, 3, 3, 3, 3, 3, 3, 3, 3, 3, 3, 3, 3, 3, 3, 3, 3, 3, 3, 3, 3, 3, 3, 3, 3, 3, 3, 3, 3, 3, 3, 3, 3, 3, 3, 3, 3, 3, 3, 3, 3, 3, 3, 3, 3, 3, 3, 3, 3, 3, 3, 3, 3, 3, 3, 3, 3, 3, 3, 3, 3, 3, 3, 3, 3, 3, 3, 3, 3, 3, 3, 3, 3, 3, 3, 3, 3, 3, 3, 3, 3, 3, 3, 3, 3, 3, 3, 3, 3, 3, 3, 3, 3, 3, 3, 3, 3, 3, 3, 3, 3, 3, 3, 3, 3, 3, 3, 3, 3, 3, 3, 3, 3, 3, 3, 3, 3, 3, 3, 3, 3, 3, 3, 3, 3, 3, 3, 3, 3, 3, 3, 3, 3, 3, 3, 3, 3, 3, 3, 3, 3, 3, 3, 3, 3, 3, 3, 3, 3, 3, 3, 3, 3, 3, 3, 3, 3, 3, 3, 3, 3, 3, 3, 3, 3, 3, 3, 3, 3, 3, 3, 3, 3, 3, 3, 3, 3, 3, 3, 3, 3, 3, 3, 3, 3, 3, 3, 3, 3, 3, 3, 3, 3, 3, 3, 3, 3, 3, 3, 3, 3, 3, 3, 3, 3, 3, 3, 3, 3, 3, 3, 3, 3, 3, 3, 3, 3, 3, 3, 3, 3, 3, 3, 3, 3, 3, 3, 3, 3, 3, 3, 3, 3, 3, 3, 3, 3, 3, 3, 3, 3, 3, 3, 3, 3, 3, 3, 3, 3, 3, 3, 3, 3, 3, 3, 3, 3, 3, 3, 3, 3, 3, 3, 3, 3, 3, 3, 3, 3, 3, 3, 3, 3, 3, 3, 3, 3, 3, 3, 3, 3, 3, 3, 3, 3, 3, 3, 3, 3, 3, 3, 3, 3, 3, 3, 3, 3, 3, 3, 3, 3, 3, 3, 3, 3, 3, 3, 3, 3, 3, 3, 3, 3, 3, 3, 3, 3, 3, 3, 3, 3, 3, 3, 3, 3, 3, 3, 3, 3, 3, 3, 3, 3, 3, 3, 3, 3, 3, 3, 3, 3, 3, 3, 3, 3, 3, 3, 3, 3, 3, 3, 3, 3, 3, 3, 3, 3, 3, 3, 3, 3, 3, 3, 3, 3, 3, 3, 3, 3, 3, 3, 3, 3, 3, 3, 3, 3, 3, 3, 3, 3, 3, 3, 3, 3, 3, 3, 3, 3, 3, 3, 3, 3, 3, 3, 3, 3, 3, 3, 3, 3, 3, 3, 3, 3, 3, 3, 3, 3, 3, 3, 3, 3, 3, 3, 3, 3, 3, 3, 3, 3, 3, 3, 3, 3, 3, 3, 3, 3, 3, 3, 3, 3, 3, 3, 3, 3, 3, 3, 3, 3, 3, 3, 3, 3, 3, 3, 3, 3, 3, 3, 3, 3, 3, 3, 3, 3, 3, 3, 3, 3, 3, 3, 3, 3, 3, 3, 3, 3, 3, 3, 3, 3, 3, 3, 3, 3, 3, 3, 3, 3, 3, 3, 3, 3, 3, 3, 3, 3, 3, 3, 3, 3, 3, 3, 3, 3, 3, 3, 3, 3, 3, 3, 3, 3, 3, 3, 3, 3, 3, 3, 3, 3, 3, 3, 3, 3, 3, 3, 3, 3, 3, 3, 3, 3, 3, 3, 3, 3, 3, 3, 3, 3, 3, 3, 3, 3, 3, 3, 3, 3, 3, 3, 3, 3, 3, 3, 3, 3, 3, 3, 3, 3, 3, 3, 3, 3, 3, 3, 3, 3, 3, 3, 3, 3, 3, 3, 3, 3, 3, 3, 3, 3, 3, 3, 3, 3, 3, 3, 3, 3, 3, 3, 3, 3, 3, 3, 3, 3, 3, 3, 3, 3, 3, 3, 3, 3, 3, 3, 3, 3, 3, 3, 3, 3, 3, 3, 3, 3, 3, 3, 3, 3, 3, 3, 3, 3, 3, 3, 3, 3, 3, 3, 3, 3, 3, 3, 3, 3, 3, 3, 3, 3, 3, 3, 3, 3, 3, 3, 3, 3, 3, 3, 3, 3, 3, 3, 3, 3, 3, 3, 3, 3, 3, 3, 3, 3, 3, 3, 3, 3, 3, 3, 3, 3, 3, 3, 3, 3, 3, 3, 3, 3, 3, 3, 3, 3, 3, 3, 3, 3, 3, 3, 3, 3, 3, 3, 3, 3, 3, 3, 3, 3, 3, 3, 3, 3, 3, 3, 3, 3, 3, 3, 3, 3, 3, 3, 3, 3, 3, 3, 3, 3, 3, 3, 3, 3, 3, 3, 3, 3, 3, 3, 3, 3, 3, 3, 3, 3, 3, 3, 3, 3, 3, 3, 3, 3, 3, 3, 3, 3, 3, 3, 3, 3, 3, 3, 3, 3, 3, 3, 3, 3, 3, 3, 3, 3, 3, 3, 3, 3, 3, 3, 3, 3, 3, 3, 3, 3, 3, 3, 3, 3, 3, 3, 3, 3, 3, 3, 3, 3, 3, 3, 3, 3, 3, 3, 3, 3, 3, 3, 3, 3, 3, 3, 3, 3, 3, 3, 3, 3, 3, 3, 3, 3, 3, 3, 3, 3, 3, 3, 3, 3, 3, 3, 3, 3, 3, 3, 3, 3, 3, 3, 3, 3, 3, 3, 3, 3, 3, 3, 3, 3, 3, 3, 3, 3, 3, 3, 3, 3, 3, 3, 3, 3, 3, 3, 3, 3, 3, 3, 3, 3, 3, 3, 3, 3, 3, 3, 3, 3, 3, 3, 3, 3, 3, 3, 3, 3, 3, 3, 3, 3, 3, 3, 3, 3, 3, 3, 3, 3, 3, 3, 3, 3, 3, 3, 3, 3, 3, 3, 3, 3, 3, 3, 3, 3, 3, 3, 3, 3, 3, 3, 3, 3, 3, 3, 3, 3, 3, 3, 3, 3, 3, 3, 3, 3, 3, 3, 3, 3, 3, 3, 3, 3, 3, 3, 3, 3, 3, 3, 3, 3, 3, 3, 3, 3, 3, 3, 3, 3, 3, 3, 3, 3, 3, 3, 3, 3, 3, 3, 3, 3, 3, 3, 3, 3, 3, 3, 3, 3, 3, 3, 3, 3, 3, 3, 3, 3, 3, 3, 3, 3, 3, 3, 3, 3, 3, 3, 3, 3, 3, 3, 3, 3, 3, 3, 3, 3, 3, 3, 3, 3, 3, 3, 3, 3, 3, 3, 3, 3, 3, 3, 3, 3, 3, 3, 3, 3, 3, 3, 3, 3, 3, 3, 3, 3, 3, 3, 3, 3, 3, 3, 3, 3, 3, 3, 3, 3, 3, 3, 3, 3, 3, 3, 3, 3, 3, 3, 3, 3, 3, 3, 3, 3, 3, 3, 3, 3, 3, 3, 3, 3, 3, 3, 3, 3, 3, 3, 3, 3, 3, 3, 3, 3, 3, 3, 3, 3, 3, 3, 3, 3, 3, 3, 3, 3, 3, 3, 3, 3, 3, 3, 3, 3, 3, 3, 3, 3, 3, 3, 3, 3, 3, 3, 3, 3, 3, 3, 3, 3, 3, 3, 3, 3, 3, 3, 3, 3, 3, 3, 3, 3, 3, 3, 3, 3, 3, 3, 3, 3, 3, 3, 3, 3, 3, 3, 3, 3, 3, 3, 3, 3, 3, 3, 3, 3, 3, 3, 3, 3, 3, 3, 3, 3, 3, 3, 3, 3, 3, 3, 3, 3, 3, 3, 3, 3, 3, 3, 3, 3, 3, 3, 3, 3, 3, 3, 3, 3, 3, 3, 3, 3, 3, 3, 3, 3, 3, 3, 3, 3, 3, 3, 3, 3, 3, 3, 3, 3, 3, 3, 3, 3, 3, 3, 3, 3, 3]
        int[] faceVertexIndices = [0, 1, 2, 2, 1, 3, 2, 3, 4, 1, 0, 5, 5, 0, 6, 5, 6, 7, 7, 6, 8, 7, 8, 9, 9, 8, 10, 9, 10, 11, 11, 10, 12, 11, 12, 13, 13, 12, 14, 13, 14, 15, 15, 14, 16, 15, 16, 17, 17, 16, 18, 17, 18, 19, 19, 18, 20, 19, 20, 21, 21, 20, 22, 21, 22, 23, 23, 22, 24, 23, 24, 25, 25, 24, 26, 25, 26, 27, 27, 26, 28, 27, 28, 29, 29, 28, 30, 29, 30, 31, 31, 30, 32, 31, 32, 33, 33, 32, 34, 33, 34, 35, 35, 34, 36, 35, 36, 37, 37, 36, 38, 37, 38, 39, 39, 38, 40, 39, 40, 41, 41, 40, 42, 41, 42, 43, 43, 42, 44, 43, 44, 45, 45, 44, 46, 45, 46, 47, 47, 46, 48, 47, 48, 49, 49, 48, 50, 49, 50, 51, 51, 50, 52, 51, 52, 53, 53, 52, 54, 53, 54, 55, 55, 54, 56, 55, 56, 57, 57, 56, 58, 57, 58, 59, 59, 58, 60, 59, 60, 61, 61, 60, 62, 61, 62, 63, 63, 62, 64, 63, 64, 65, 65, 64, 66, 65, 66, 67, 67, 66, 68, 67, 68, 69, 69, 68, 70, 69, 70, 71, 71, 70, 72, 71, 72, 73, 73, 72, 74, 73, 74, 75, 75, 74, 76, 75, 76, 77, 77, 76, 78, 77, 78, 79, 79, 78, 80, 79, 80, 81, 81, 80, 82, 81, 82, 83, 83, 82, 84, 83, 84, 85, 85, 84, 86, 85, 86, 87, 87, 86, 88, 87, 88, 89, 89, 88, 90, 89, 90, 91, 91, 90, 92, 91, 92, 93, 93, 92, 94, 93, 94, 95, 95, 94, 96, 95, 96, 97, 97, 96, 98, 97, 98, 99, 99, 98, 100, 99, 100, 101, 101, 100, 102, 101, 102, 103, 103, 102, 104, 103, 104, 105, 105, 104, 106, 105, 106, 107, 107, 106, 108, 107, 108, 109, 109, 108, 110, 109, 110, 111, 111, 110, 112, 111, 112, 113, 113, 112, 114, 113, 114, 115, 115, 114, 116, 115, 116, 117, 117, 116, 118, 117, 118, 119, 119, 118, 120, 119, 120, 121, 121, 120, 122, 121, 122, 123, 123, 122, 124, 123, 124, 125, 125, 124, 126, 125, 126, 127, 127, 126, 128, 127, 128, 4, 4, 128, 2, 1, 129, 3, 3, 129, 130, 3, 130, 131, 131, 130, 132, 131, 132, 133, 133, 132, 134, 133, 134, 135, 129, 1, 136, 136, 1, 5, 136, 5, 137, 137, 5, 7, 137, 7, 138, 138, 7, 9, 138, 9, 139, 139, 9, 140, 139, 140, 141, 141, 140, 142, 141, 142, 143, 143, 142, 144, 144, 142, 145, 144, 145, 146, 146, 145, 147, 146, 147, 148, 148, 147, 149, 148, 149, 150, 150, 149, 151, 150, 151, 152, 152, 151, 153, 152, 153, 154, 154, 153, 155, 154, 155, 156, 156, 155, 157, 156, 157, 158, 158, 157, 159, 158, 159, 160, 160, 159, 161, 160, 161, 162, 162, 161, 163, 162, 163, 164, 164, 163, 165, 164, 165, 166, 166, 165, 167, 166, 167, 168, 168, 167, 169, 168, 169, 170, 170, 169, 171, 170, 171, 172, 172, 171, 173, 172, 173, 174, 174, 173, 175, 174, 175, 176, 176, 175, 177, 176, 177, 178, 178, 177, 179, 178, 179, 180, 180, 179, 181, 180, 181, 182, 182, 181, 183, 182, 183, 184, 184, 183, 185, 184, 185, 186, 186, 185, 187, 186, 187, 188, 188, 187, 189, 188, 189, 190, 190, 189, 191, 190, 191, 192, 192, 191, 193, 192, 193, 194, 194, 193, 195, 194, 195, 196, 196, 195, 197, 196, 197, 198, 198, 197, 199, 198, 199, 200, 200, 199, 201, 200, 201, 202, 202, 201, 203, 202, 203, 204, 204, 203, 205, 204, 205, 206, 206, 205, 207, 206, 207, 208, 208, 207, 209, 208, 209, 210, 210, 209, 211, 210, 211, 212, 212, 211, 213, 212, 213, 214, 214, 213, 215, 214, 215, 216, 216, 215, 217, 216, 217, 218, 218, 217, 219, 218, 219, 220, 220, 219, 221, 220, 221, 222, 222, 221, 223, 222, 223, 224, 224, 223, 225, 224, 225, 226, 226, 225, 227, 226, 227, 228, 228, 227, 229, 228, 229, 230, 230, 229, 231, 230, 231, 232, 232, 231, 233, 232, 233, 234, 234, 233, 235, 234, 235, 236, 236, 235, 237, 236, 237, 238, 238, 237, 239, 238, 239, 240, 240, 239, 241, 240, 241, 242, 242, 241, 243, 242, 243, 244, 244, 243, 245, 244, 245, 246, 246, 245, 247, 246, 247, 248, 248, 247, 249, 248, 249, 250, 250, 249, 251, 250, 251, 252, 252, 251, 253, 252, 253, 254, 254, 253, 255, 254, 255, 256, 256, 255, 257, 256, 257, 258, 258, 257, 259, 258, 259, 260, 260, 259, 261, 260, 261, 262, 262, 261, 263, 262, 263, 264, 264, 263, 265, 264, 265, 266, 266, 265, 267, 266, 267, 268, 268, 267, 269, 268, 269, 270, 270, 269, 271, 270, 271, 272, 272, 271, 273, 272, 273, 274, 274, 273, 275, 274, 275, 276, 276, 275, 277, 276, 277, 278, 278, 277, 279, 278, 279, 280, 280, 279, 281, 280, 281, 282, 282, 281, 283, 282, 283, 284, 284, 283, 285, 284, 285, 135, 135, 285, 133, 9, 11, 140, 140, 11, 286, 140, 286, 142, 142, 286, 145, 11, 13, 286, 286, 13, 287, 286, 287, 145, 145, 287, 147, 13, 15, 287, 287, 15, 288, 287, 288, 147, 147, 288, 149, 15, 17, 288, 288, 17, 289, 288, 289, 149, 149, 289, 151, 17, 19, 289, 289, 19, 290, 289, 290, 151, 151, 290, 153, 290, 19, 291, 291, 19, 21, 291, 21, 292, 292, 21, 23, 292, 23, 293, 293, 23, 25, 293, 25, 294, 294, 25, 27, 294, 27, 295, 295, 27, 296, 295, 296, 163, 163, 296, 165, 27, 29, 296, 296, 29, 297, 296, 297, 165, 165, 297, 167, 29, 31, 297, 297, 31, 298, 297, 298, 167, 167, 298, 169, 31, 33, 298, 298, 33, 299, 298, 299, 169, 169, 299, 171, 33, 35, 299, 299, 35, 300, 299, 300, 171, 171, 300, 173, 300, 35, 301, 301, 35, 37, 301, 37, 302, 302, 37, 39, 302, 39, 303, 303, 39, 41, 303, 41, 304, 304, 41, 43, 304, 43, 305, 305, 43, 45, 305, 45, 306, 306, 45, 307, 306, 307, 185, 185, 307, 187, 45, 47, 307, 307, 47, 308, 307, 308, 187, 187, 308, 189, 47, 49, 308, 308, 49, 309, 308, 309, 189, 189, 309, 191, 49, 51, 309, 309, 51, 310, 309, 310, 191, 191, 310, 193, 51, 53, 310, 310, 53, 311, 310, 311, 193, 193, 311, 195, 311, 53, 312, 312, 53, 55, 312, 55, 313, 313, 55, 57, 313, 57, 314, 314, 57, 59, 314, 59, 315, 315, 59, 61, 315, 61, 316, 316, 61, 317, 316, 317, 205, 205, 317, 207, 61, 63, 317, 317, 63, 318, 317, 318, 207, 207, 318, 209, 63, 65, 318, 318, 65, 319, 318, 319, 209, 209, 319, 211, 65, 67, 319, 319, 67, 320, 319, 320, 211, 211, 320, 213, 67, 69, 320, 320, 69, 321, 320, 321, 213, 213, 321, 215, 69, 71, 321, 321, 71, 322, 321, 322, 215, 215, 322, 217, 322, 71, 323, 323, 71, 73, 323, 73, 324, 324, 73, 75, 324, 75, 325, 325, 75, 77, 325, 77, 326, 326, 77, 79, 326, 79, 327, 327, 79, 328, 327, 328, 227, 227, 328, 229, 79, 81, 328, 328, 81, 329, 328, 329, 229, 229, 329, 231, 81, 83, 329, 329, 83, 330, 329, 330, 231, 231, 330, 233, 83, 85, 330, 330, 85, 331, 330, 331, 233, 233, 331, 235, 85, 87, 331, 331, 87, 332, 331, 332, 235, 235, 332, 237, 332, 87, 333, 333, 87, 89, 333, 89, 334, 334, 89, 91, 334, 91, 335, 335, 91, 93, 335, 93, 336, 336, 93, 95, 336, 95, 337, 337, 95, 97, 337, 97, 338, 338, 97, 339, 338, 339, 249, 249, 339, 251, 97, 99, 339, 339, 99, 340, 339, 340, 251, 251, 340, 253, 99, 101, 340, 340, 101, 341, 340, 341, 253, 253, 341, 255, 101, 103, 341, 341, 103, 342, 341, 342, 255, 255, 342, 257, 103, 105, 342, 342, 105, 343, 342, 343, 257, 257, 343, 259, 343, 105, 344, 344, 105, 107, 344, 107, 345, 345, 107, 109, 345, 109, 346, 346, 109, 111, 346, 111, 347, 347, 111, 113, 347, 113, 348, 348, 113, 349, 348, 349, 269, 269, 349, 271, 113, 115, 349, 349, 115, 350, 349, 350, 271, 271, 350, 273, 115, 117, 350, 350, 117, 351, 350, 351, 273, 273, 351, 275, 117, 119, 351, 351, 119, 352, 351, 352, 275, 275, 352, 277, 119, 121, 352, 352, 121, 353, 352, 353, 277, 277, 353, 279, 121, 123, 353, 353, 123, 354, 353, 354, 279, 279, 354, 281, 354, 123, 355, 355, 123, 125, 355, 125, 356, 356, 125, 127, 356, 127, 357, 357, 127, 4, 357, 4, 131, 131, 4, 3, 143, 358, 141, 141, 358, 359, 141, 359, 139, 139, 359, 138, 358, 360, 359, 359, 360, 361, 359, 361, 138, 138, 361, 137, 360, 362, 361, 361, 362, 363, 361, 363, 137, 137, 363, 136, 362, 364, 363, 363, 364, 365, 363, 365, 136, 136, 365, 129, 364, 366, 365, 365, 366, 367, 365, 367, 129, 129, 367, 130, 366, 368, 367, 367, 368, 132, 367, 132, 130, 368, 134, 132, 155, 153, 291, 291, 153, 290, 157, 155, 292, 292, 155, 291, 159, 157, 293, 293, 157, 292, 161, 159, 294, 294, 159, 293, 295, 163, 161, 294, 295, 161, 302, 175, 301, 301, 175, 173, 301, 173, 300, 175, 302, 177, 177, 302, 303, 177, 303, 179, 179, 303, 304, 179, 304, 181, 181, 304, 305, 181, 305, 183, 183, 305, 306, 183, 306, 185, 197, 195, 312, 312, 195, 311, 199, 197, 313, 313, 197, 312, 201, 199, 314, 314, 199, 313, 203, 201, 315, 315, 201, 314, 205, 203, 316, 316, 203, 315, 219, 217, 323, 323, 217, 322, 221, 219, 324, 324, 219, 323, 223, 221, 325, 325, 221, 324, 225, 223, 326, 326, 223, 325, 327, 227, 225, 326, 327, 225, 334, 239, 333, 333, 239, 237, 333, 237, 332, 239, 334, 241, 241, 334, 335, 241, 335, 243, 243, 335, 336, 243, 336, 245, 245, 336, 337, 245, 337, 247, 247, 337, 338, 247, 338, 249, 261, 259, 344, 344, 259, 343, 263, 261, 345, 345, 261, 344, 265, 263, 346, 346, 263, 345, 267, 265, 347, 347, 265, 346, 269, 267, 348, 348, 267, 347, 283, 281, 355, 355, 281, 354, 285, 283, 356, 356, 283, 355, 133, 285, 357, 357, 285, 356, 131, 133, 357, 368, 369, 134, 134, 369, 370, 134, 370, 135, 135, 370, 371, 135, 371, 372, 369, 368, 373, 373, 368, 366, 373, 366, 374, 374, 366, 364, 374, 364, 375, 375, 364, 362, 375, 362, 376, 376, 362, 360, 376, 360, 377, 377, 360, 358, 377, 358, 378, 378, 358, 143, 378, 143, 379, 379, 143, 144, 379, 144, 380, 380, 144, 146, 380, 146, 381, 381, 146, 148, 381, 148, 382, 382, 148, 150, 382, 150, 383, 383, 150, 152, 383, 152, 384, 384, 152, 154, 384, 154, 385, 385, 154, 156, 385, 156, 386, 386, 156, 158, 386, 158, 387, 387, 158, 160, 387, 160, 388, 388, 160, 162, 388, 162, 389, 389, 162, 164, 389, 164, 390, 390, 164, 166, 390, 166, 391, 391, 166, 168, 391, 168, 170, 391, 170, 392, 392, 170, 172, 392, 172, 393, 393, 172, 174, 393, 174, 394, 394, 174, 176, 394, 176, 395, 395, 176, 178, 395, 178, 396, 396, 178, 180, 396, 180, 397, 397, 180, 182, 397, 182, 398, 398, 182, 184, 398, 184, 399, 399, 184, 186, 399, 186, 400, 400, 186, 188, 400, 188, 401, 401, 188, 190, 401, 190, 402, 402, 190, 192, 402, 192, 403, 403, 192, 194, 403, 194, 404, 404, 194, 196, 404, 196, 405, 405, 196, 198, 405, 198, 406, 406, 198, 200, 406, 200, 407, 407, 200, 202, 407, 202, 408, 408, 202, 204, 408, 204, 409, 409, 204, 206, 409, 206, 410, 410, 206, 208, 410, 208, 411, 411, 208, 412, 412, 208, 210, 412, 210, 413, 413, 210, 212, 413, 212, 414, 414, 212, 214, 414, 214, 415, 415, 214, 216, 415, 216, 416, 416, 216, 218, 416, 218, 417, 417, 218, 220, 417, 220, 418, 418, 220, 222, 418, 222, 419, 419, 222, 224, 419, 224, 420, 420, 224, 226, 420, 226, 421, 421, 226, 228, 421, 228, 422, 422, 228, 230, 422, 230, 423, 423, 230, 232, 423, 232, 424, 424, 232, 234, 424, 234, 425, 425, 234, 236, 425, 236, 426, 426, 236, 238, 426, 238, 427, 427, 238, 240, 427, 240, 428, 428, 240, 242, 428, 242, 429, 429, 242, 244, 429, 244, 430, 430, 244, 246, 430, 246, 431, 431, 246, 248, 431, 248, 250, 431, 250, 432, 432, 250, 252, 432, 252, 433, 433, 252, 254, 433, 254, 434, 434, 254, 256, 434, 256, 435, 435, 256, 258, 435, 258, 436, 436, 258, 260, 436, 260, 437, 437, 260, 262, 437, 262, 438, 438, 262, 264, 438, 264, 439, 439, 264, 266, 439, 266, 440, 440, 266, 268, 440, 268, 441, 441, 268, 270, 441, 270, 442, 442, 270, 272, 442, 272, 443, 443, 272, 274, 443, 274, 444, 444, 274, 276, 444, 276, 445, 445, 276, 278, 445, 278, 446, 446, 278, 280, 446, 280, 447, 447, 280, 282, 447, 282, 448, 448, 282, 284, 448, 284, 372, 372, 284, 135, 369, 449, 370, 370, 449, 450, 370, 450, 371, 371, 450, 451, 371, 451, 372, 372, 451, 452, 372, 452, 448, 448, 452, 453, 448, 453, 447, 447, 453, 454, 447, 454, 446, 446, 454, 455, 446, 455, 445, 445, 455, 456, 445, 456, 444, 444, 456, 457, 444, 457, 443, 443, 457, 458, 443, 458, 442, 442, 458, 459, 442, 459, 441, 441, 459, 460, 441, 460, 440, 440, 460, 461, 440, 461, 439, 439, 461, 462, 439, 462, 438, 438, 462, 463, 438, 463, 437, 437, 463, 464, 437, 464, 436, 436, 464, 465, 436, 465, 435, 435, 465, 466, 435, 466, 434, 434, 466, 467, 434, 467, 433, 433, 467, 468, 433, 468, 432, 432, 468, 469, 432, 469, 431, 431, 469, 470, 431, 470, 430, 430, 470, 471, 430, 471, 429, 429, 471, 472, 429, 472, 428, 428, 472, 473, 428, 473, 427, 427, 473, 474, 427, 474, 426, 426, 474, 475, 426, 475, 425, 425, 475, 476, 425, 476, 424, 424, 476, 477, 424, 477, 423, 423, 477, 478, 423, 478, 422, 422, 478, 479, 422, 479, 421, 421, 479, 480, 421, 480, 420, 420, 480, 481, 420, 481, 419, 419, 481, 482, 419, 482, 418, 418, 482, 483, 418, 483, 417, 417, 483, 484, 417, 484, 416, 416, 484, 485, 416, 485, 415, 415, 485, 486, 415, 486, 414, 414, 486, 487, 414, 487, 413, 413, 487, 488, 413, 488, 412, 412, 488, 489, 412, 489, 411, 411, 489, 490, 411, 490, 410, 410, 490, 491, 410, 491, 409, 409, 491, 492, 409, 492, 408, 408, 492, 493, 408, 493, 407, 407, 493, 494, 407, 494, 406, 406, 494, 495, 406, 495, 405, 405, 495, 496, 405, 496, 404, 404, 496, 497, 404, 497, 403, 403, 497, 498, 403, 498, 402, 402, 498, 499, 402, 499, 401, 401, 499, 500, 401, 500, 400, 400, 500, 501, 400, 501, 399, 399, 501, 502, 399, 502, 398, 398, 502, 503, 398, 503, 397, 397, 503, 504, 397, 504, 396, 396, 504, 505, 396, 505, 395, 395, 505, 506, 395, 506, 394, 394, 506, 507, 394, 507, 393, 393, 507, 508, 393, 508, 392, 392, 508, 509, 392, 509, 391, 391, 509, 510, 391, 510, 390, 390, 510, 511, 390, 511, 389, 389, 511, 512, 389, 512, 388, 388, 512, 513, 388, 513, 387, 387, 513, 514, 387, 514, 386, 386, 514, 515, 386, 515, 385, 385, 515, 516, 385, 516, 384, 384, 516, 517, 384, 517, 383, 383, 517, 518, 383, 518, 382, 382, 518, 519, 382, 519, 381, 381, 519, 520, 381, 520, 380, 380, 520, 521, 380, 521, 379, 379, 521, 522, 379, 522, 378, 378, 522, 523, 378, 523, 377, 377, 523, 524, 377, 524, 376, 376, 524, 525, 376, 525, 375, 375, 525, 526, 375, 526, 374, 374, 526, 527, 374, 527, 373, 373, 527, 528, 373, 528, 369, 369, 528, 449, 128, 529, 2, 2, 529, 530, 2, 530, 531, 531, 530, 450, 531, 450, 449, 529, 128, 532, 532, 128, 126, 532, 126, 533, 533, 126, 124, 533, 124, 534, 534, 124, 122, 534, 122, 535, 535, 122, 536, 535, 536, 456, 456, 536, 457, 122, 120, 536, 536, 120, 537, 536, 537, 457, 457, 537, 458, 120, 118, 537, 537, 118, 538, 537, 538, 458, 458, 538, 459, 118, 116, 538, 538, 116, 539, 538, 539, 459, 459, 539, 460, 116, 114, 539, 539, 114, 540, 539, 540, 460, 460, 540, 461, 540, 114, 541, 541, 114, 112, 541, 112, 542, 542, 112, 110, 542, 110, 543, 543, 110, 108, 543, 108, 544, 544, 108, 106, 544, 106, 545, 545, 106, 546, 545, 546, 466, 466, 546, 467, 106, 104, 546, 546, 104, 547, 546, 547, 467, 467, 547, 468, 104, 102, 547, 547, 102, 548, 547, 548, 468, 468, 548, 469, 102, 100, 548, 548, 100, 549, 548, 549, 469, 469, 549, 470, 100, 98, 549, 549, 98, 550, 549, 550, 470, 470, 550, 471, 550, 98, 551, 551, 98, 96, 551, 96, 552, 552, 96, 94, 552, 94, 553, 553, 94, 92, 553, 92, 554, 554, 92, 90, 554, 90, 555, 555, 90, 556, 555, 556, 476, 476, 556, 477, 90, 88, 556, 556, 88, 557, 556, 557, 477, 477, 557, 478, 88, 86, 557, 557, 86, 558, 557, 558, 478, 478, 558, 479, 86, 84, 558, 558, 84, 559, 558, 559, 479, 479, 559, 480, 84, 82, 559, 559, 82, 560, 559, 560, 480, 480, 560, 481, 560, 82, 561, 561, 82, 80, 561, 80, 562, 562, 80, 78, 562, 78, 563, 563, 78, 76, 563, 76, 564, 564, 76, 74, 564, 74, 565, 565, 74, 566, 565, 566, 486, 486, 566, 487, 74, 72, 566, 566, 72, 567, 566, 567, 487, 487, 567, 488, 72, 70, 567, 567, 70, 568, 567, 568, 488, 488, 568, 489, 70, 68, 568, 568, 68, 569, 568, 569, 489, 489, 569, 490, 68, 66, 569, 569, 66, 570, 569, 570, 490, 490, 570, 491, 570, 66, 571, 571, 66, 64, 571, 64, 572, 572, 64, 62, 572, 62, 573, 573, 62, 60, 573, 60, 574, 574, 60, 58, 574, 58, 575, 575, 58, 576, 575, 576, 496, 496, 576, 497, 58, 56, 576, 576, 56, 577, 576, 577, 497, 497, 577, 498, 56, 54, 577, 577, 54, 578, 577, 578, 498, 498, 578, 499, 54, 52, 578, 578, 52, 579, 578, 579, 499, 499, 579, 500, 52, 50, 579, 579, 50, 580, 579, 580, 500, 500, 580, 501, 580, 50, 581, 581, 50, 48, 581, 48, 582, 582, 48, 46, 582, 46, 583, 583, 46, 44, 583, 44, 584, 584, 44, 42, 584, 42, 585, 585, 42, 586, 585, 586, 506, 506, 586, 507, 42, 40, 586, 586, 40, 587, 586, 587, 507, 507, 587, 508, 40, 38, 587, 587, 38, 588, 587, 588, 508, 508, 588, 509, 38, 36, 588, 588, 36, 589, 588, 589, 509, 509, 589, 510, 36, 34, 589, 589, 34, 590, 589, 590, 510, 510, 590, 511, 590, 34, 591, 591, 34, 32, 591, 32, 592, 592, 32, 30, 592, 30, 593, 593, 30, 28, 593, 28, 594, 594, 28, 26, 594, 26, 595, 595, 26, 596, 595, 596, 516, 516, 596, 517, 26, 24, 596, 596, 24, 597, 596, 597, 517, 517, 597, 518, 24, 22, 597, 597, 22, 598, 597, 598, 518, 518, 598, 519, 22, 20, 598, 598, 20, 599, 598, 599, 519, 519, 599, 520, 20, 18, 599, 599, 18, 600, 599, 600, 520, 520, 600, 521, 600, 18, 601, 601, 18, 16, 601, 16, 602, 602, 16, 14, 602, 14, 603, 603, 14, 12, 603, 12, 604, 604, 12, 10, 604, 10, 605, 605, 10, 606, 605, 606, 526, 526, 606, 527, 10, 8, 606, 606, 8, 607, 606, 607, 527, 527, 607, 528, 8, 6, 607, 607, 6, 608, 607, 608, 528, 528, 608, 449, 6, 0, 608, 608, 0, 531, 608, 531, 449, 0, 2, 531, 491, 570, 571, 451, 450, 530, 451, 530, 529, 605, 526, 525, 604, 605, 525, 604, 525, 524, 603, 604, 524, 603, 524, 523, 602, 603, 523, 602, 523, 522, 601, 602, 522, 601, 522, 521, 600, 601, 521, 595, 516, 515, 594, 595, 515, 594, 515, 514, 593, 594, 514, 593, 514, 513, 592, 593, 513, 592, 513, 512, 591, 592, 512, 591, 512, 511, 590, 591, 511, 585, 506, 505, 584, 585, 505, 584, 505, 504, 583, 584, 504, 583, 504, 503, 582, 583, 503, 582, 503, 502, 581, 582, 502, 581, 502, 501, 580, 581, 501, 575, 496, 495, 574, 575, 495, 574, 495, 494, 573, 574, 494, 573, 494, 493, 572, 573, 493, 572, 493, 492, 571, 572, 492, 571, 492, 491, 565, 486, 485, 564, 565, 485, 564, 485, 484, 563, 564, 484, 563, 484, 483, 562, 563, 483, 562, 483, 482, 561, 562, 482, 561, 482, 481, 560, 561, 481, 555, 476, 475, 554, 555, 475, 554, 475, 474, 553, 554, 474, 553, 474, 473, 552, 553, 473, 552, 473, 472, 551, 552, 472, 551, 472, 471, 550, 551, 471, 545, 466, 465, 544, 545, 465, 544, 465, 464, 543, 544, 464, 543, 464, 463, 542, 543, 463, 542, 463, 462, 541, 542, 462, 541, 462, 461, 540, 541, 461, 535, 456, 455, 534, 535, 455, 534, 455, 454, 533, 534, 454, 533, 454, 453, 532, 533, 453, 532, 453, 452, 529, 532, 452, 529, 452, 451]
        point3f[] points = [(0.028064, 0.002764, -0.09089), (0.028865, 0.002799, -0.09209), (0.0282, 0, -0.09089), (0.029, 0, -0.09209), (0.028865, -0.002799, -0.09209), (0.02846, 0.005572, -0.09209), (0.027658, 0.005502, -0.09089), (0.027789, 0.008292, -0.09209), (0.026986, 0.008186, -0.09089), (0.026859, 0.010936, -0.09209), (0.026053, 0.010792, -0.09089), (0.025678, 0.013477, -0.09209), (0.02487, 0.013293, -0.09089), (0.024258, 0.015892, -0.09209), (0.023447, 0.015667, -0.09089), (0.022611, 0.018159, -0.09209), (0.021799, 0.01789, -0.09089), (0.020752, 0.020257, -0.09209), (0.01994, 0.01994, -0.09089), (0.0187, 0.022165, -0.09209), (0.01789, 0.021799, -0.09089), (0.016474, 0.023867, -0.09209), (0.015667, 0.023447, -0.09089), (0.014094, 0.025345, -0.09209), (0.013293, 0.02487, -0.09089), (0.011582, 0.026587, -0.09209), (0.010792, 0.026053, -0.09089), (0.008961, 0.027581, -0.09209), (0.008186, 0.026986, -0.09089), (0.006258, 0.028317, -0.09209), (0.005502, 0.027658, -0.09089), (0.003496, 0.028789, -0.09209), (0.002764, 0.028064, -0.09089), (0.000701, 0.028992, -0.09209), (0, 0.0282, -0.09089), (-0.002101, 0.028924, -0.09209), (-0.002764, 0.028064, -0.09089), (-0.004882, 0.028586, -0.09209), (-0.005502, 0.027658, -0.09089), (-0.007619, 0.027981, -0.09209), (-0.008186, 0.026986, -0.09089), (-0.010284, 0.027115, -0.09209), (-0.010792, 0.026053, -0.09089), (-0.012853, 0.025996, -0.09209), (-0.013293, 0.02487, -0.09089), (-0.015302, 0.024635, -0.09209), (-0.015667, 0.023447, -0.09089), (-0.017608, 0.023043, -0.09209), (-0.01789, 0.021799, -0.09089), (-0.019749, 0.021236, -0.09209), (-0.01994, 0.01994, -0.09089), (-0.021707, 0.019231, -0.09209), (-0.021799, 0.01789, -0.09089), (-0.023461, 0.017046, -0.09209), (-0.023447, 0.015667, -0.09089), (-0.024997, 0.014702, -0.09209), (-0.02487, 0.013293, -0.09089), (-0.026299, 0.012221, -0.09209), (-0.026053, 0.010792, -0.09089), (-0.027356, 0.009625, -0.09209), (-0.026986, 0.008186, -0.09089), (-0.028157, 0.00694, -0.09209), (-0.027658, 0.005502, -0.09089), (-0.028696, 0.00419, -0.09209), (-0.028064, 0.002764, -0.09089), (-0.028966, 0.001401, -0.09209), (-0.0282, 0, -0.09089), (-0.028966, -0.001401, -0.09209), (-0.028064, -0.002764, -0.09089), (-0.028696, -0.00419, -0.09209), (-0.027658, -0.005502, -0.09089), (-0.028157, -0.00694, -0.09209), (-0.026986, -0.008186, -0.09089), (-0.027356, -0.009625, -0.09209), (-0.026053, -0.010792, -0.09089), (-0.026299, -0.012221, -0.09209), (-0.02487, -0.013293, -0.09089), (-0.024997, -0.014702, -0.09209), (-0.023447, -0.015667, -0.09089), (-0.023461, -0.017046, -0.09209), (-0.021799, -0.01789, -0.09089), (-0.021707, -0.019231, -0.09209), (-0.01994, -0.01994, -0.09089), (-0.019749, -0.021236, -0.09209), (-0.01789, -0.021799, -0.09089), (-0.017608, -0.023043, -0.09209), (-0.015667, -0.023447, -0.09089), (-0.015302, -0.024635, -0.09209), (-0.013293, -0.02487, -0.09089), (-0.012853, -0.025996, -0.09209), (-0.010792, -0.026053, -0.09089), (-0.010284, -0.027115, -0.09209), (-0.008186, -0.026986, -0.09089), (-0.007619, -0.027981, -0.09209), (-0.005502, -0.027658, -0.09089), (-0.004882, -0.028586, -0.09209), (-0.002764, -0.028064, -0.09089), (-0.002101, -0.028924, -0.09209), (-0, -0.0282, -0.09089), (0.000701, -0.028992, -0.09209), (0.002764, -0.028064, -0.09089), (0.003496, -0.028789, -0.09209), (0.005502, -0.027658, -0.09089), (0.006258, -0.028317, -0.09209), (0.008186, -0.026986, -0.09089), (0.008961, -0.027581, -0.09209), (0.010792, -0.026053, -0.09089), (0.011582, -0.026587, -0.09209), (0.013293, -0.02487, -0.09089), (0.014094, -0.025345, -0.09209), (0.015667, -0.023447, -0.09089), (0.016474, -0.023867, -0.09209), (0.01789, -0.021799, -0.09089), (0.0187, -0.022165, -0.09209), (0.01994, -0.01994, -0.09089), (0.020752, -0.020257, -0.09209), (0.021799, -0.01789, -0.09089), (0.022611, -0.018159, -0.09209), (0.023447, -0.015667, -0.09089), (0.024258, -0.015892, -0.09209), (0.02487, -0.013293, -0.09089), (0.025678, -0.013477, -0.09209), (0.026053, -0.010792, -0.09089), (0.026859, -0.010936, -0.09209), (0.026986, -0.008186, -0.09089), (0.027789, -0.008292, -0.09209), (0.027658, -0.005502, -0.09089), (0.02846, -0.005572, -0.09209), (0.028064, -0.002764, -0.09089), (0.033895, 0.002668, -0.033757), (0.034, 0, -0.033757), (0.033895, -0.002668, -0.033757), (0.039, 0, 0.024577), (0.03888, -0.00306, 0.024577), (0.044, 0, 0.08291), (0.043864, -0.003452, 0.08291), (0.033581, 0.005319, -0.033757), (0.033061, 0.007937, -0.033757), (0.032336, 0.010507, -0.033757), (0.031412, 0.013011, -0.033757), (0.030294, 0.015436, -0.033757), (0.034749, 0.017706, 0.024577), (0.033253, 0.020377, 0.024577), (0.037516, 0.02299, 0.08291), (0.035597, 0.025863, 0.08291), (0.031552, 0.022924, 0.024577), (0.033458, 0.028576, 0.08291), (0.029656, 0.025328, 0.024577), (0.031113, 0.031113, 0.08291), (0.027577, 0.027577, 0.024577), (0.028576, 0.033458, 0.08291), (0.025328, 0.029656, 0.024577), (0.025863, 0.035597, 0.08291), (0.022924, 0.031552, 0.024577), (0.02299, 0.037516, 0.08291), (0.020377, 0.033253, 0.024577), (0.019976, 0.039204, 0.08291), (0.017706, 0.034749, 0.024577), (0.016838, 0.040651, 0.08291), (0.014925, 0.036031, 0.024577), (0.013597, 0.041846, 0.08291), (0.012052, 0.037091, 0.024577), (0.010272, 0.042784, 0.08291), (0.009104, 0.037922, 0.024577), (0.006883, 0.043458, 0.08291), (0.006101, 0.03852, 0.024577), (0.003452, 0.043864, 0.08291), (0.00306, 0.03888, 0.024577), (0, 0.044, 0.08291), (0, 0.039, 0.024577), (-0.003452, 0.043864, 0.08291), (-0.00306, 0.03888, 0.024577), (-0.006883, 0.043458, 0.08291), (-0.006101, 0.03852, 0.024577), (-0.010272, 0.042784, 0.08291), (-0.009104, 0.037922, 0.024577), (-0.013597, 0.041846, 0.08291), (-0.012052, 0.037091, 0.024577), (-0.016838, 0.040651, 0.08291), (-0.014925, 0.036031, 0.024577), (-0.019976, 0.039204, 0.08291), (-0.017706, 0.034749, 0.024577), (-0.02299, 0.037516, 0.08291), (-0.020377, 0.033253, 0.024577), (-0.025863, 0.035597, 0.08291), (-0.022924, 0.031552, 0.024577), (-0.028576, 0.033458, 0.08291), (-0.025328, 0.029656, 0.024577), (-0.031113, 0.031113, 0.08291), (-0.027577, 0.027577, 0.024577), (-0.033458, 0.028576, 0.08291), (-0.029656, 0.025328, 0.024577), (-0.035597, 0.025863, 0.08291), (-0.031552, 0.022924, 0.024577), (-0.037516, 0.02299, 0.08291), (-0.033253, 0.020377, 0.024577), (-0.039204, 0.019976, 0.08291), (-0.034749, 0.017706, 0.024577), (-0.040651, 0.016838, 0.08291), (-0.036031, 0.014925, 0.024577), (-0.041846, 0.013597, 0.08291), (-0.037091, 0.012052, 0.024577), (-0.042784, 0.010272, 0.08291), (-0.037922, 0.009104, 0.024577), (-0.043458, 0.006883, 0.08291), (-0.03852, 0.006101, 0.024577), (-0.043864, 0.003452, 0.08291), (-0.03888, 0.00306, 0.024577), (-0.044, 0, 0.08291), (-0.039, 0, 0.024577), (-0.043864, -0.003452, 0.08291), (-0.03888, -0.00306, 0.024577), (-0.043458, -0.006883, 0.08291), (-0.03852, -0.006101, 0.024577), (-0.042784, -0.010272, 0.08291), (-0.037922, -0.009104, 0.024577), (-0.041846, -0.013597, 0.08291), (-0.037091, -0.012052, 0.024577), (-0.040651, -0.016838, 0.08291), (-0.036031, -0.014925, 0.024577), (-0.039204, -0.019976, 0.08291), (-0.034749, -0.017706, 0.024577), (-0.037516, -0.02299, 0.08291), (-0.033253, -0.020377, 0.024577), (-0.035597, -0.025863, 0.08291), (-0.031552, -0.022924, 0.024577), (-0.033458, -0.028576, 0.08291), (-0.029656, -0.025328, 0.024577), (-0.031113, -0.031113, 0.08291), (-0.027577, -0.027577, 0.024577), (-0.028576, -0.033458, 0.08291), (-0.025328, -0.029656, 0.024577), (-0.025863, -0.035597, 0.08291), (-0.022924, -0.031552, 0.024577), (-0.02299, -0.037516, 0.08291), (-0.020377, -0.033253, 0.024577), (-0.019976, -0.039204, 0.08291), (-0.017706, -0.034749, 0.024577), (-0.016838, -0.040651, 0.08291), (-0.014925, -0.036031, 0.024577), (-0.013597, -0.041846, 0.08291), (-0.012052, -0.037091, 0.024577), (-0.010272, -0.042784, 0.08291), (-0.009104, -0.037922, 0.024577), (-0.006883, -0.043458, 0.08291), (-0.006101, -0.03852, 0.024577), (-0.003452, -0.043864, 0.08291), (-0.00306, -0.03888, 0.024577), (-0, -0.044, 0.08291), (0, -0.039, 0.024577), (0.003452, -0.043864, 0.08291), (0.00306, -0.03888, 0.024577), (0.006883, -0.043458, 0.08291), (0.006101, -0.03852, 0.024577), (0.010272, -0.042784, 0.08291), (0.009104, -0.037922, 0.024577), (0.013597, -0.041846, 0.08291), (0.012052, -0.037091, 0.024577), (0.016838, -0.040651, 0.08291), (0.014925, -0.036031, 0.024577), (0.019976, -0.039204, 0.08291), (0.017706, -0.034749, 0.024577), (0.02299, -0.037516, 0.08291), (0.020377, -0.033253, 0.024577), (0.025863, -0.035597, 0.08291), (0.022924, -0.031552, 0.024577), (0.028576, -0.033458, 0.08291), (0.025328, -0.029656, 0.024577), (0.031113, -0.031113, 0.08291), (0.027577, -0.027577, 0.024577), (0.033458, -0.028576, 0.08291), (0.029656, -0.025328, 0.024577), (0.035597, -0.025863, 0.08291), (0.031552, -0.022924, 0.024577), (0.037516, -0.02299, 0.08291), (0.033253, -0.020377, 0.024577), (0.039204, -0.019976, 0.08291), (0.034749, -0.017706, 0.024577), (0.040651, -0.016838, 0.08291), (0.036031, -0.014925, 0.024577), (0.041846, -0.013597, 0.08291), (0.037091, -0.012052, 0.024577), (0.042784, -0.010272, 0.08291), (0.037922, -0.009104, 0.024577), (0.043458, -0.006883, 0.08291), (0.03852, -0.006101, 0.024577), (0.02899, 0.017765, -0.033757), (0.027507, 0.019985, -0.033757), (0.025854, 0.022081, -0.033757), (0.024042, 0.024042, -0.033757), (0.022081, 0.025854, -0.033757), (0.019985, 0.027507, -0.033757), (0.017765, 0.02899, -0.033757), (0.015436, 0.030294, -0.033757), (0.013011, 0.031412, -0.033757), (0.010507, 0.032336, -0.033757), (0.007937, 0.033061, -0.033757), (0.005319, 0.033581, -0.033757), (0.002668, 0.033895, -0.033757), (0, 0.034, -0.033757), (-0.002668, 0.033895, -0.033757), (-0.005319, 0.033581, -0.033757), (-0.007937, 0.033061, -0.033757), (-0.010507, 0.032336, -0.033757), (-0.013011, 0.031412, -0.033757), (-0.015436, 0.030294, -0.033757), (-0.017765, 0.02899, -0.033757), (-0.019985, 0.027507, -0.033757), (-0.022081, 0.025854, -0.033757), (-0.024042, 0.024042, -0.033757), (-0.025854, 0.022081, -0.033757), (-0.027507, 0.019985, -0.033757), (-0.02899, 0.017765, -0.033757), (-0.030294, 0.015436, -0.033757), (-0.031412, 0.013011, -0.033757), (-0.032336, 0.010507, -0.033757), (-0.033061, 0.007937, -0.033757), (-0.033581, 0.005319, -0.033757), (-0.033895, 0.002668, -0.033757), (-0.034, 0, -0.033757), (-0.033895, -0.002668, -0.033757), (-0.033581, -0.005319, -0.033757), (-0.033061, -0.007937, -0.033757), (-0.032336, -0.010507, -0.033757), (-0.031412, -0.013011, -0.033757), (-0.030294, -0.015436, -0.033757), (-0.02899, -0.017765, -0.033757), (-0.027507, -0.019985, -0.033757), (-0.025854, -0.022081, -0.033757), (-0.024042, -0.024042, -0.033757), (-0.022081, -0.025854, -0.033757), (-0.019985, -0.027507, -0.033757), (-0.017765, -0.02899, -0.033757), (-0.015436, -0.030294, -0.033757), (-0.013011, -0.031412, -0.033757), (-0.010507, -0.032336, -0.033757), (-0.007937, -0.033061, -0.033757), (-0.005319, -0.033581, -0.033757), (-0.002668, -0.033895, -0.033757), (0, -0.034, -0.033757), (0.002668, -0.033895, -0.033757), (0.005319, -0.033581, -0.033757), (0.007937, -0.033061, -0.033757), (0.010507, -0.032336, -0.033757), (0.013011, -0.031412, -0.033757), (0.015436, -0.030294, -0.033757), (0.017765, -0.02899, -0.033757), (0.019985, -0.027507, -0.033757), (0.022081, -0.025854, -0.033757), (0.024042, -0.024042, -0.033757), (0.025854, -0.022081, -0.033757), (0.027507, -0.019985, -0.033757), (0.02899, -0.017765, -0.033757), (0.030294, -0.015436, -0.033757), (0.031412, -0.013011, -0.033757), (0.032336, -0.010507, -0.033757), (0.033061, -0.007937, -0.033757), (0.033581, -0.005319, -0.033757), (0.039204, 0.019976, 0.08291), (0.036031, 0.014925, 0.024577), (0.040651, 0.016838, 0.08291), (0.037091, 0.012052, 0.024577), (0.041846, 0.013597, 0.08291), (0.037922, 0.009104, 0.024577), (0.042784, 0.010272, 0.08291), (0.03852, 0.006101, 0.024577), (0.043458, 0.006883, 0.08291), (0.03888, 0.00306, 0.024577), (0.043864, 0.003452, 0.08291), (0.043067, 0.003389, 0.08291), (0.0432, 0, 0.08291), (0.043067, -0.003389, 0.08291), (0.042668, -0.006758, 0.08291), (0.042668, 0.006758, 0.08291), (0.042006, 0.010085, 0.08291), (0.041086, 0.01335, 0.08291), (0.039912, 0.016532, 0.08291), (0.038491, 0.019612, 0.08291), (0.036834, 0.022572, 0.08291), (0.03495, 0.025392, 0.08291), (0.03285, 0.028056, 0.08291), (0.030547, 0.030547, 0.08291), (0.028056, 0.03285, 0.08291), (0.025392, 0.03495, 0.08291), (0.022572, 0.036834, 0.08291), (0.019612, 0.038491, 0.08291), (0.016532, 0.039912, 0.08291), (0.01335, 0.041086, 0.08291), (0.010085, 0.042006, 0.08291), (0.006758, 0.042668, 0.08291), (0.003389, 0.043067, 0.08291), (0, 0.0432, 0.08291), (-0.003389, 0.043067, 0.08291), (-0.006758, 0.042668, 0.08291), (-0.010085, 0.042006, 0.08291), (-0.01335, 0.041086, 0.08291), (-0.016532, 0.039912, 0.08291), (-0.019612, 0.038491, 0.08291), (-0.022572, 0.036834, 0.08291), (-0.025392, 0.03495, 0.08291), (-0.028056, 0.03285, 0.08291), (-0.030547, 0.030547, 0.08291), (-0.03285, 0.028056, 0.08291), (-0.03495, 0.025392, 0.08291), (-0.036834, 0.022572, 0.08291), (-0.038491, 0.019612, 0.08291), (-0.039912, 0.016532, 0.08291), (-0.041086, 0.01335, 0.08291), (-0.042006, 0.010085, 0.08291), (-0.042668, 0.006758, 0.08291), (-0.043067, 0.003389, 0.08291), (-0.0432, 0, 0.08291), (-0.043067, -0.003389, 0.08291), (-0.042668, -0.006758, 0.08291), (-0.042006, -0.010085, 0.08291), (-0.041086, -0.01335, 0.08291), (-0.039912, -0.016532, 0.08291), (-0.038491, -0.019612, 0.08291), (-0.036834, -0.022572, 0.08291), (-0.03495, -0.025392, 0.08291), (-0.03285, -0.028056, 0.08291), (-0.030547, -0.030547, 0.08291), (-0.028056, -0.03285, 0.08291), (-0.025392, -0.03495, 0.08291), (-0.022572, -0.036834, 0.08291), (-0.019612, -0.038491, 0.08291), (-0.016532, -0.039912, 0.08291), (-0.01335, -0.041086, 0.08291), (-0.010085, -0.042006, 0.08291), (-0.006758, -0.042668, 0.08291), (-0.003389, -0.043067, 0.08291), (-0, -0.0432, 0.08291), (0.003389, -0.043067, 0.08291), (0.006758, -0.042668, 0.08291), (0.010085, -0.042006, 0.08291), (0.01335, -0.041086, 0.08291), (0.016532, -0.039912, 0.08291), (0.019612, -0.038491, 0.08291), (0.022572, -0.036834, 0.08291), (0.025392, -0.03495, 0.08291), (0.028056, -0.03285, 0.08291), (0.030547, -0.030547, 0.08291), (0.03285, -0.028056, 0.08291), (0.03495, -0.025392, 0.08291), (0.036834, -0.022572, 0.08291), (0.038491, -0.019612, 0.08291), (0.039912, -0.016532, 0.08291), (0.041086, -0.01335, 0.08291), (0.042006, -0.010085, 0.08291), (0.038082, 0.002997, 0.024977), (0.0382, 0, 0.024977), (0.038082, -0.002997, 0.024977), (0.03773, -0.005976, 0.024977), (0.037145, -0.008918, 0.024977), (0.03633, -0.011804, 0.024977), (0.035292, -0.014619, 0.024977), (0.034036, -0.017342, 0.024977), (0.032571, -0.019959, 0.024977), (0.030904, -0.022453, 0.024977), (0.029048, -0.024809, 0.024977), (0.027011, -0.027011, 0.024977), (0.024809, -0.029048, 0.024977), (0.022453, -0.030904, 0.024977), (0.019959, -0.032571, 0.024977), (0.017342, -0.034036, 0.024977), (0.014619, -0.035292, 0.024977), (0.011804, -0.03633, 0.024977), (0.008918, -0.037145, 0.024977), (0.005976, -0.03773, 0.024977), (0.002997, -0.038082, 0.024977), (-0, -0.0382, 0.024977), (-0.002997, -0.038082, 0.024977), (-0.005976, -0.03773, 0.024977), (-0.008918, -0.037145, 0.024977), (-0.011804, -0.03633, 0.024977), (-0.014619, -0.035292, 0.024977), (-0.017342, -0.034036, 0.024977), (-0.019959, -0.032571, 0.024977), (-0.022453, -0.030904, 0.024977), (-0.024809, -0.029048, 0.024977), (-0.027011, -0.027011, 0.024977), (-0.029048, -0.024809, 0.024977), (-0.030904, -0.022453, 0.024977), (-0.032571, -0.019959, 0.024977), (-0.034036, -0.017342, 0.024977), (-0.035292, -0.014619, 0.024977), (-0.03633, -0.011804, 0.024977), (-0.037145, -0.008918, 0.024977), (-0.03773, -0.005976, 0.024977), (-0.038082, -0.002997, 0.024977), (-0.0382, 0, 0.024977), (-0.038082, 0.002997, 0.024977), (-0.03773, 0.005976, 0.024977), (-0.037145, 0.008918, 0.024977), (-0.03633, 0.011804, 0.024977), (-0.035292, 0.014619, 0.024977), (-0.034036, 0.017342, 0.024977), (-0.032571, 0.019959, 0.024977), (-0.030904, 0.022453, 0.024977), (-0.029048, 0.024809, 0.024977), (-0.027011, 0.027011, 0.024977), (-0.024809, 0.029048, 0.024977), (-0.022453, 0.030904, 0.024977), (-0.019959, 0.032571, 0.024977), (-0.017342, 0.034036, 0.024977), (-0.014619, 0.035292, 0.024977), (-0.011804, 0.03633, 0.024977), (-0.008918, 0.037145, 0.024977), (-0.005976, 0.03773, 0.024977), (-0.002997, 0.038082, 0.024977), (0, 0.0382, 0.024977), (0.002997, 0.038082, 0.024977), (0.005976, 0.03773, 0.024977), (0.008918, 0.037145, 0.024977), (0.011804, 0.03633, 0.024977), (0.014619, 0.035292, 0.024977), (0.017342, 0.034036, 0.024977), (0.019959, 0.032571, 0.024977), (0.022453, 0.030904, 0.024977), (0.024809, 0.029048, 0.024977), (0.027011, 0.027011, 0.024977), (0.029048, 0.024809, 0.024977), (0.030904, 0.022453, 0.024977), (0.032571, 0.019959, 0.024977), (0.034036, 0.017342, 0.024977), (0.035292, 0.014619, 0.024977), (0.03633, 0.011804, 0.024977), (0.037145, 0.008918, 0.024977), (0.03773, 0.005976, 0.024977), (0.033098, -0.002605, -0.032957), (0.0332, 0, -0.032957), (0.033098, 0.002605, -0.032957), (0.032791, -0.005194, -0.032957), (0.032283, -0.00775, -0.032957), (0.031575, -0.010259, -0.032957), (0.030673, -0.012705, -0.032957), (0.029581, -0.015072, -0.032957), (0.028308, -0.017347, -0.032957), (0.026859, -0.019514, -0.032957), (0.025245, -0.021562, -0.032957), (0.023476, -0.023476, -0.032957), (0.021562, -0.025245, -0.032957), (0.019514, -0.026859, -0.032957), (0.017347, -0.028308, -0.032957), (0.015072, -0.029581, -0.032957), (0.012705, -0.030673, -0.032957), (0.010259, -0.031575, -0.032957), (0.00775, -0.032283, -0.032957), (0.005194, -0.032791, -0.032957), (0.002605, -0.033098, -0.032957), (-0, -0.0332, -0.032957), (-0.002605, -0.033098, -0.032957), (-0.005194, -0.032791, -0.032957), (-0.00775, -0.032283, -0.032957), (-0.010259, -0.031575, -0.032957), (-0.012705, -0.030673, -0.032957), (-0.015072, -0.029581, -0.032957), (-0.017347, -0.028308, -0.032957), (-0.019514, -0.026859, -0.032957), (-0.021562, -0.025245, -0.032957), (-0.023476, -0.023476, -0.032957), (-0.025245, -0.021562, -0.032957), (-0.026859, -0.019514, -0.032957), (-0.028308, -0.017347, -0.032957), (-0.029581, -0.015072, -0.032957), (-0.030673, -0.012705, -0.032957), (-0.031575, -0.010259, -0.032957), (-0.032283, -0.00775, -0.032957), (-0.032791, -0.005194, -0.032957), (-0.033098, -0.002605, -0.032957), (-0.0332, 0, -0.032957), (-0.033098, 0.002605, -0.032957), (-0.032791, 0.005194, -0.032957), (-0.032283, 0.00775, -0.032957), (-0.031575, 0.010259, -0.032957), (-0.030673, 0.012705, -0.032957), (-0.029581, 0.015072, -0.032957), (-0.028308, 0.017347, -0.032957), (-0.026859, 0.019514, -0.032957), (-0.025245, 0.021562, -0.032957), (-0.023476, 0.023476, -0.032957), (-0.021562, 0.025245, -0.032957), (-0.019514, 0.026859, -0.032957), (-0.017347, 0.028308, -0.032957), (-0.015072, 0.029581, -0.032957), (-0.012705, 0.030673, -0.032957), (-0.010259, 0.031575, -0.032957), (-0.00775, 0.032283, -0.032957), (-0.005194, 0.032791, -0.032957), (-0.002605, 0.033098, -0.032957), (0, 0.0332, -0.032957), (0.002605, 0.033098, -0.032957), (0.005194, 0.032791, -0.032957), (0.00775, 0.032283, -0.032957), (0.010259, 0.031575, -0.032957), (0.012705, 0.030673, -0.032957), (0.015072, 0.029581, -0.032957), (0.017347, 0.028308, -0.032957), (0.019514, 0.026859, -0.032957), (0.021562, 0.025245, -0.032957), (0.023476, 0.023476, -0.032957), (0.025245, 0.021562, -0.032957), (0.026859, 0.019514, -0.032957), (0.028308, 0.017347, -0.032957), (0.029581, 0.015072, -0.032957), (0.030673, 0.012705, -0.032957), (0.031575, 0.010259, -0.032957), (0.032283, 0.00775, -0.032957), (0.032791, 0.005194, -0.032957)]
        uniform bool doubleSided = 1
    }
}
