# generated from Fusion STL (mm)
mtllib shaker_materials.mtl
g body
o body
v 28.06421 2.76408 -90.89000
v 28.86462 2.79890 -92.09000
v 28.20000 0.00000 -90.89000
v 29.00000 0.00000 -92.09000
v 28.86462 -2.79890 -92.09000
v 28.45973 5.57167 -92.09000
v 27.65814 5.50155 -90.89000
v 27.78913 8.29242 -92.09000
v 26.98572 8.18603 -90.89000
v 26.85906 10.93575 -92.09000
v 26.05340 10.79167 -90.89000
v 25.67822 13.47697 -92.09000
v 24.87018 13.29339 -90.89000
v 24.25763 15.89236 -92.09000
v 23.44744 15.66708 -90.89000
v 22.61056 18.15937 -92.09000
v 21.79889 17.88989 -90.89000
v 20.75237 20.25683 -92.09000
v 19.94041 19.94041 -90.89000
v 18.70042 22.16516 -92.09000
v 17.88989 21.79889 -90.89000
v 16.47388 23.86653 -92.09000
v 15.66708 23.44744 -90.89000
v 14.09352 25.34507 -92.09000
v 13.29339 24.87018 -90.89000
v 11.58157 26.58697 -92.09000
v 10.79167 26.05340 -90.89000
v 8.96149 27.58064 -92.09000
v 8.18603 26.98572 -90.89000
v 6.25774 28.31679 -92.09000
v 5.50155 27.65814 -90.89000
v 3.49556 28.78856 -92.09000
v 2.76408 28.06421 -90.89000
v 0.70075 28.99153 -92.09000
v 0.00000 28.20000 -90.89000
v -2.10061 28.92382 -92.09000
v -2.76408 28.06421 -90.89000
v -4.88235 28.58606 -92.09000
v -5.50155 27.65814 -90.89000
v -7.61851 27.98139 -92.09000
v -8.18603 26.98572 -90.89000
v -10.28354 27.11547 -92.09000
v -10.79167 26.05340 -90.89000
v -12.85256 25.99638 -92.09000
v -13.29339 24.87018 -90.89000
v -15.30157 24.63457 -92.09000
v -15.66708 23.44744 -90.89000
v -17.60771 23.04275 -92.09000
v -17.88989 21.79889 -90.89000
v -19.74946 21.23579 -92.09000
v -19.94041 19.94041 -90.89000
v -21.70681 19.23056 -92.09000
v -21.79889 17.88989 -90.89000
v -23.46149 17.04577 -92.09000
v -23.44744 15.66708 -90.89000
v -24.99712 14.70184 -92.09000
v -24.87018 13.29339 -90.89000
v -26.29936 12.22063 -92.09000
v -26.05340 10.79167 -90.89000
v -27.35604 9.62533 -92.09000
v -26.98572 8.18603 -90.89000
v -28.15731 6.94015 -92.09000
v -27.65814 5.50155 -90.89000
v -28.69569 4.19018 -92.09000
v -28.06421 2.76408 -90.89000
v -28.96614 1.40109 -92.09000
v -28.20000 0.00000 -90.89000
v -28.96614 -1.40109 -92.09000
v -28.06421 -2.76408 -90.89000
v -28.69569 -4.19018 -92.09000
v -27.65814 -5.50155 -90.89000
v -28.15731 -6.94015 -92.09000
v -26.98572 -8.18603 -90.89000
v -27.35604 -9.62533 -92.09000
v -26.05340 -10.79167 -90.89000
v -26.29936 -12.22063 -92.09000
v -24.87018 -13.29339 -90.89000
v -24.99712 -14.70184 -92.09000
v -23.44744 -15.66708 -90.89000
v -23.46149 -17.04577 -92.09000
v -21.79889 -17.88989 -90.89000
v -21.70681 -19.23056 -92.09000
v -19.94041 -19.94041 -90.89000
v -19.74946 -21.23579 -92.09000
v -17.88989 -21.79889 -90.89000
v -17.60771 -23.04275 -92.09000
v -15.66708 -23.44744 -90.89000
v -15.30157 -24.63457 -92.09000
v -13.29339 -24.87018 -90.89000
v -12.85256 -25.99638 -92.09000
v -10.79167 -26.05340 -90.89000
v -10.28354 -27.11547 -92.09000
v -8.18603 -26.98572 -90.89000
v -7.61851 -27.98139 -92.09000
v -5.50155 -27.65814 -90.89000
v -4.88235 -28.58606 -92.09000
v -2.76408 -28.06421 -90.89000
v -2.10061 -28.92382 -92.09000
v -0.00000 -28.20000 -90.89000
v 0.70075 -28.99153 -92.09000
v 2.76408 -28.06421 -90.89000
v 3.49556 -28.78856 -92.09000
v 5.50155 -27.65814 -90.89000
v 6.25774 -28.31679 -92.09000
v 8.18603 -26.98572 -90.89000
v 8.96149 -27.58064 -92.09000
v 10.79167 -26.05340 -90.89000
v 11.58157 -26.58697 -92.09000
v 13.29339 -24.87018 -90.89000
v 14.09352 -25.34507 -92.09000
v 15.66708 -23.44744 -90.89000
v 16.47388 -23.86653 -92.09000
v 17.88989 -21.79889 -90.89000
v 18.70042 -22.16516 -92.09000
v 19.94041 -19.94041 -90.89000
v 20.75237 -20.25683 -92.09000
v 21.79889 -17.88989 -90.89000
v 22.61056 -18.15937 -92.09000
v 23.44744 -15.66708 -90.89000
v 24.25763 -15.89236 -92.09000
v 24.87018 -13.29339 -90.89000
v 25.67822 -13.47697 -92.09000
v 26.05340 -10.79167 -90.89000
v 26.85906 -10.93575 -92.09000
v 26.98572 -8.18603 -90.89000
v 27.78913 -8.29242 -92.09000
v 27.65814 -5.50155 -90.89000
v 28.45973 -5.57167 -92.09000
v 28.06421 -2.76408 -90.89000
v 33.89519 2.66761 -33.75667
v 34.00000 0.00000 -33.75667
v 33.89519 -2.66761 -33.75667
v 39.00000 0.00000 24.57666
v 38.87978 -3.05990 24.57666
v 44.00000 0.00000 82.91000
v 43.86436 -3.45220 82.91000
v 33.58140 5.31877 -33.75667
v 33.06058 7.93714 -33.75667
v 32.33592 10.50658 -33.75667
v 31.41190 13.01124 -33.75667
v 30.29422 15.43568 -33.75667
v 34.74926 17.70563 24.57666
v 33.25297 20.37744 24.57666
v 37.51617 22.98994 82.91000
v 35.59675 25.86255 82.91000
v 31.55166 22.92362 24.57666
v 33.45786 28.57571 82.91000
v 29.65583 25.32847 24.57666
v 31.11270 31.11270 82.91000
v 27.57716 27.57716 24.57666
v 28.57571 33.45786 82.91000
v 25.32847 29.65583 24.57666
v 25.86255 35.59675 82.91000
v 22.92362 31.55166 24.57666
v 22.98994 37.51617 82.91000
v 20.37744 33.25297 24.57666
v 19.97558 39.20429 82.91000
v 17.70563 34.74926 24.57666
v 16.83807 40.65070 82.91000
v 14.92465 36.03130 24.57666
v 13.59675 41.84649 82.91000
v 12.05166 37.09121 24.57666
v 10.27160 42.78428 82.91000
v 9.10437 37.92243 24.57666
v 6.88312 43.45829 82.91000
v 6.10094 38.51984 24.57666
v 3.45220 43.86436 82.91000
v 3.05990 38.87978 24.57666
v 0.00000 44.00000 82.91000
v 0.00000 39.00000 24.57666
v -3.45220 43.86436 82.91000
v -3.05990 38.87978 24.57666
v -6.88312 43.45829 82.91000
v -6.10094 38.51984 24.57666
v -10.27160 42.78428 82.91000
v -9.10437 37.92243 24.57666
v -13.59675 41.84649 82.91000
v -12.05166 37.09121 24.57666
v -16.83807 40.65070 82.91000
v -14.92465 36.03130 24.57666
v -19.97558 39.20429 82.91000
v -17.70563 34.74926 24.57666
v -22.98994 37.51617 82.91000
v -20.37744 33.25297 24.57666
v -25.86255 35.59675 82.91000
v -22.92362 31.55166 24.57666
v -28.57571 33.45786 82.91000
v -25.32847 29.65583 24.57666
v -31.11270 31.11270 82.91000
v -27.57716 27.57716 24.57666
v -33.45786 28.57571 82.91000
v -29.65583 25.32847 24.57666
v -35.59675 25.86255 82.91000
v -31.55166 22.92362 24.57666
v -37.51617 22.98994 82.91000
v -33.25297 20.37744 24.57666
v -39.20429 19.97558 82.91000
v -34.74926 17.70563 24.57666
v -40.65070 16.83807 82.91000
v -36.03130 14.92465 24.57666
v -41.84649 13.59675 82.91000
v -37.09121 12.05166 24.57666
v -42.78428 10.27160 82.91000
v -37.92243 9.10437 24.57666
v -43.45829 6.88312 82.91000
v -38.51984 6.10094 24.57666
v -43.86436 3.45220 82.91000
v -38.87978 3.05990 24.57666
v -44.00000 0.00000 82.91000
v -39.00000 0.00000 24.57666
v -43.86436 -3.45220 82.91000
v -38.87978 -3.05990 24.57666
v -43.45829 -6.88312 82.91000
v -38.51984 -6.10094 24.57666
v -42.78428 -10.27160 82.91000
v -37.92243 -9.10437 24.57666
v -41.84649 -13.59675 82.91000
v -37.09121 -12.05166 24.57666
v -40.65070 -16.83807 82.91000
v -36.03130 -14.92465 24.57666
v -39.20429 -19.97558 82.91000
v -34.74926 -17.70563 24.57666
v -37.51617 -22.98994 82.91000
v -33.25297 -20.37744 24.57666
v -35.59675 -25.86255 82.91000
v -31.55166 -22.92362 24.57666
v -33.45786 -28.57571 82.91000
v -29.65583 -25.32847 24.57666
v -31.11270 -31.11270 82.91000
v -27.57716 -27.57716 24.57666
v -28.57571 -33.45786 82.91000
v -25.32847 -29.65583 24.57666
v -25.86255 -35.59675 82.91000
v -22.92362 -31.55166 24.57666
v -22.98994 -37.51617 82.91000
v -20.37744 -33.25297 24.57666
v -19.97558 -39.20429 82.91000
v -17.70563 -34.74926 24.57666
v -16.83807 -40.65070 82.91000
v -14.92465 -36.03130 24.57666
v -13.59675 -41.84649 82.91000
v -12.05166 -37.09121 24.57666
v -10.27160 -42.78428 82.91000
v -9.10437 -37.92243 24.57666
v -6.88312 -43.45829 82.91000
v -6.10094 -38.51984 24.57666
v -3.45220 -43.86436 82.91000
v -3.05990 -38.87978 24.57666
v -0.00000 -44.00000 82.91000
v 0.00000 -39.00000 24.57666
v 3.45220 -43.86436 82.91000
v 3.05990 -38.87978 24.57666
v 6.88312 -43.45829 82.91000
v 6.10094 -38.51984 24.57666
v 10.27160 -42.78428 82.91000
v 9.10437 -37.92243 24.57666
v 13.59675 -41.84649 82.91000
v 12.05166 -37.09121 24.57666
v 16.83807 -40.65070 82.91000
v 14.92465 -36.03130 24.57666
v 19.97558 -39.20429 82.91000
v 17.70563 -34.74926 24.57666
v 22.98994 -37.51617 82.91000
v 20.37744 -33.25297 24.57666
v 25.86255 -35.59675 82.91000
v 22.92362 -31.55166 24.57666
v 28.57571 -33.45786 82.91000
v 25.32847 -29.65583 24.57666
v 31.11270 -31.11270 82.91000
v 27.57716 -27.57716 24.57666
v 33.45786 -28.57571 82.91000
v 29.65583 -25.32847 24.57666
v 35.59675 -25.86255 82.91000
v 31.55166 -22.92362 24.57666
v 37.51617 -22.98994 82.91000
v 33.25297 -20.37744 24.57666
v 39.20429 -19.97558 82.91000
v 34.74926 -17.70563 24.57666
v 40.65070 -16.83807 82.91000
v 36.03130 -14.92465 24.57666
v 41.84649 -13.59675 82.91000
v 37.09121 -12.05166 24.57666
v 42.78428 -10.27160 82.91000
v 37.92243 -9.10437 24.57666
v 43.45829 -6.88312 82.91000
v 38.51984 -6.10094 24.57666
v 28.98977 17.76495 -33.75667
v 27.50658 19.98470 -33.75667
v 25.85380 22.08123 -33.75667
v 24.04163 24.04163 -33.75667
v 22.08123 25.85380 -33.75667
v 19.98470 27.50658 -33.75667
v 17.76495 28.98977 -33.75667
v 15.43568 30.29422 -33.75667
v 13.01124 31.41190 -33.75667
v 10.50658 32.33592 -33.75667
v 7.93714 33.06058 -33.75667
v 5.31877 33.58140 -33.75667
v 2.66761 33.89519 -33.75667
v 0.00000 34.00000 -33.75667
v -2.66761 33.89519 -33.75667
v -5.31877 33.58140 -33.75667
v -7.93714 33.06058 -33.75667
v -10.50658 32.33592 -33.75667
v -13.01124 31.41190 -33.75667
v -15.43568 30.29422 -33.75667
v -17.76495 28.98977 -33.75667
v -19.98470 27.50658 -33.75667
v -22.08123 25.85380 -33.75667
v -24.04163 24.04163 -33.75667
v -25.85380 22.08123 -33.75667
v -27.50658 19.98470 -33.75667
v -28.98977 17.76495 -33.75667
v -30.29422 15.43568 -33.75667
v -31.41190 13.01124 -33.75667
v -32.33592 10.50658 -33.75667
v -33.06058 7.93714 -33.75667
v -33.58140 5.31877 -33.75667
v -33.89519 2.66761 -33.75667
v -34.00000 0.00000 -33.75667
v -33.89519 -2.66761 -33.75667
v -33.58140 -5.31877 -33.75667
v -33.06058 -7.93714 -33.75667
v -32.33592 -10.50658 -33.75667
v -31.41190 -13.01124 -33.75667
v -30.29422 -15.43568 -33.75667
v -28.98977 -17.76495 -33.75667
v -27.50658 -19.98470 -33.75667
v -25.85380 -22.08123 -33.75667
v -24.04163 -24.04163 -33.75667
v -22.08123 -25.85380 -33.75667
v -19.98470 -27.50658 -33.75667
v -17.76495 -28.98977 -33.75667
v -15.43568 -30.29422 -33.75667
v -13.01124 -31.41190 -33.75667
v -10.50658 -32.33592 -33.75667
v -7.93714 -33.06058 -33.75667
v -5.31877 -33.58140 -33.75667
v -2.66761 -33.89519 -33.75667
v 0.00000 -34.00000 -33.75667
v 2.66761 -33.89519 -33.75667
v 5.31877 -33.58140 -33.75667
v 7.93714 -33.06058 -33.75667
v 10.50658 -32.33592 -33.75667
v 13.01124 -31.41190 -33.75667
v 15.43568 -30.29422 -33.75667
v 17.76495 -28.98977 -33.75667
v 19.98470 -27.50658 -33.75667
v 22.08123 -25.85380 -33.75667
v 24.04163 -24.04163 -33.75667
v 25.85380 -22.08123 -33.75667
v 27.50658 -19.98470 -33.75667
v 28.98977 -17.76495 -33.75667
v 30.29422 -15.43568 -33.75667
v 31.41190 -13.01124 -33.75667
v 32.33592 -10.50658 -33.75667
v 33.06058 -7.93714 -33.75667
v 33.58140 -5.31877 -33.75667
v 39.20429 19.97558 82.91000
v 36.03130 14.92465 24.57666
v 40.65070 16.83807 82.91000
v 37.09121 12.05166 24.57666
v 41.84649 13.59675 82.91000
v 37.92243 9.10437 24.57666
v 42.78428 10.27160 82.91000
v 38.51984 6.10094 24.57666
v 43.45829 6.88312 82.91000
v 38.87978 3.05990 24.57666
v 43.86436 3.45220 82.91000
v 43.06683 3.38943 82.91000
v 43.20000 0.00000 82.91000
v 43.06683 -3.38943 82.91000
v 42.66814 -6.75797 82.91000
v 42.66814 6.75797 82.91000
v 42.00638 10.08484 82.91000
v 41.08564 13.34953 82.91000
v 39.91159 16.53193 82.91000
v 38.49148 19.61239 82.91000
v 36.83406 22.57194 82.91000
v 34.94954 25.39232 82.91000
v 32.84954 28.05616 82.91000
v 30.54701 30.54701 82.91000
v 28.05616 32.84954 82.91000
v 25.39232 34.94954 82.91000
v 22.57194 36.83406 82.91000
v 19.61239 38.49148 82.91000
v 16.53193 39.91159 82.91000
v 13.34953 41.08564 82.91000
v 10.08484 42.00638 82.91000
v 6.75797 42.66814 82.91000
v 3.38943 43.06683 82.91000
v 0.00000 43.20000 82.91000
v -3.38943 43.06683 82.91000
v -6.75797 42.66814 82.91000
v -10.08484 42.00638 82.91000
v -13.34953 41.08564 82.91000
v -16.53193 39.91159 82.91000
v -19.61239 38.49148 82.91000
v -22.57194 36.83406 82.91000
v -25.39232 34.94954 82.91000
v -28.05616 32.84954 82.91000
v -30.54701 30.54701 82.91000
v -32.84954 28.05616 82.91000
v -34.94954 25.39232 82.91000
v -36.83406 22.57194 82.91000
v -38.49148 19.61239 82.91000
v -39.91159 16.53193 82.91000
v -41.08564 13.34953 82.91000
v -42.00638 10.08484 82.91000
v -42.66814 6.75797 82.91000
v -43.06683 3.38943 82.91000
v -43.20000 0.00000 82.91000
v -43.06683 -3.38943 82.91000
v -42.66814 -6.75797 82.91000
v -42.00638 -10.08484 82.91000
v -41.08564 -13.34953 82.91000
v -39.91159 -16.53193 82.91000
v -38.49148 -19.61239 82.91000
v -36.83406 -22.57194 82.91000
v -34.94954 -25.39232 82.91000
v -32.84954 -28.05616 82.91000
v -30.54701 -30.54701 82.91000
v -28.05616 -32.84954 82.91000
v -25.39232 -34.94954 82.91000
v -22.57194 -36.83406 82.91000
v -19.61239 -38.49148 82.91000
v -16.53193 -39.91159 82.91000
v -13.34953 -41.08564 82.91000
v -10.08484 -42.00638 82.91000
v -6.75797 -42.66814 82.91000
v -3.38943 -43.06683 82.91000
v -0.00000 -43.20000 82.91000
v 3.38943 -43.06683 82.91000
v 6.75797 -42.66814 82.91000
v 10.08484 -42.00638 82.91000
v 13.34953 -41.08564 82.91000
v 16.53193 -39.91159 82.91000
v 19.61239 -38.49148 82.91000
v 22.57194 -36.83406 82.91000
v 25.39232 -34.94954 82.91000
v 28.05616 -32.84954 82.91000
v 30.54701 -30.54701 82.91000
v 32.84954 -28.05616 82.91000
v 34.94954 -25.39232 82.91000
v 36.83406 -22.57194 82.91000
v 38.49148 -19.61239 82.91000
v 39.91159 -16.53193 82.91000
v 41.08564 -13.34953 82.91000
v 42.00638 -10.08484 82.91000
v 38.08224 2.99714 24.97667
v 38.20000 0.00000 24.97667
v 38.08224 -2.99714 24.97667
v 37.72969 -5.97580 24.97667
v 37.14453 -8.91761 24.97667
v 36.33036 -11.80445 24.97667
v 35.29220 -14.61851 24.97667
v 34.03645 -17.34244 24.97667
v 32.57085 -19.95945 24.97667
v 30.90445 -22.45340 24.97667
v 29.04751 -24.80892 24.97667
v 27.01148 -27.01148 24.97667
v 24.80892 -29.04751 24.97667
v 22.45340 -30.90445 24.97667
v 19.95945 -32.57085 24.97667
v 17.34244 -34.03645 24.97667
v 14.61851 -35.29220 24.97667
v 11.80445 -36.33036 24.97667
v 8.91761 -37.14453 24.97667
v 5.97580 -37.72969 24.97667
v 2.99714 -38.08224 24.97667
v -0.00000 -38.20000 24.97667
v -2.99714 -38.08224 24.97667
v -5.97580 -37.72969 24.97667
v -8.91761 -37.14453 24.97667
v -11.80445 -36.33036 24.97667
v -14.61851 -35.29220 24.97667
v -17.34244 -34.03645 24.97667
v -19.95945 -32.57085 24.97667
v -22.45340 -30.90445 24.97667
v -24.80892 -29.04751 24.97667
v -27.01148 -27.01148 24.97667
v -29.04751 -24.80892 24.97667
v -30.90445 -22.45340 24.97667
v -32.57085 -19.95945 24.97667
v -34.03645 -17.34244 24.97667
v -35.29220 -14.61851 24.97667
v -36.33036 -11.80445 24.97667
v -37.14453 -8.91761 24.97667
v -37.72969 -5.97580 24.97667
v -38.08224 -2.99714 24.97667
v -38.20000 0.00000 24.97667
v -38.08224 2.99714 24.97667
v -37.72969 5.97580 24.97667
v -37.14453 8.91761 24.97667
v -36.33036 11.80445 24.97667
v -35.29220 14.61851 24.97667
v -34.03645 17.34244 24.97667
v -32.57085 19.95945 24.97667
v -30.90445 22.45340 24.97667
v -29.04751 24.80892 24.97667
v -27.01148 27.01148 24.97667
v -24.80892 29.04751 24.97667
v -22.45340 30.90445 24.97667
v -19.95945 32.57085 24.97667
v -17.34244 34.03645 24.97667
v -14.61851 35.29220 24.97667
v -11.80445 36.33036 24.97667
v -8.91761 37.14453 24.97667
v -5.97580 37.72969 24.97667
v -2.99714 38.08224 24.97667
v 0.00000 38.20000 24.97667
v 2.99714 38.08224 24.97667
v 5.97580 37.72969 24.97667
v 8.91761 37.14453 24.97667
v 11.80445 36.33036 24.97667
v 14.61851 35.29220 24.97667
v 17.34244 34.03645 24.97667
v 19.95945 32.57085 24.97667
v 22.45340 30.90445 24.97667
v 24.80892 29.04751 24.97667
v 27.01148 27.01148 24.97667
v 29.04751 24.80892 24.97667
v 30.90445 22.45340 24.97667
v 32.57085 19.95945 24.97667
v 34.03645 17.34244 24.97667
v 35.29220 14.61851 24.97667
v 36.33036 11.80445 24.97667
v 37.14453 8.91761 24.97667
v 37.72969 5.97580 24.97667
v 33.09766 -2.60484 -32.95667
v 33.20000 0.00000 -32.95667
v 33.09766 2.60484 -32.95667
v 32.79125 -5.19362 -32.95667
v 32.28268 -7.75039 -32.95667
v 31.57508 -10.25936 -32.95667
v 30.67280 -12.70509 -32.95667
v 29.58142 -15.07248 -32.95667
v 28.30765 -17.34695 -32.95667
v 26.85936 -19.51447 -32.95667
v 25.24548 -21.56168 -32.95667
v 23.47594 -23.47594 -32.95667
v 21.56168 -25.24548 -32.95667
v 19.51447 -26.85936 -32.95667
v 17.34695 -28.30765 -32.95667
v 15.07248 -29.58142 -32.95667
v 12.70509 -30.67280 -32.95667
v 10.25936 -31.57508 -32.95667
v 7.75039 -32.28268 -32.95667
v 5.19362 -32.79125 -32.95667
v 2.60484 -33.09766 -32.95667
v -0.00000 -33.20000 -32.95667
v -2.60484 -33.09766 -32.95667
v -5.19362 -32.79125 -32.95667
v -7.75039 -32.28268 -32.95667
v -10.25936 -31.57508 -32.95667
v -12.70509 -30.67280 -32.95667
v -15.07248 -29.58142 -32.95667
v -17.34695 -28.30765 -32.95667
v -19.51447 -26.85936 -32.95667
v -21.56168 -25.24548 -32.95667
v -23.47594 -23.47594 -32.95667
v -25.24548 -21.56168 -32.95667
v -26.85936 -19.51447 -32.95667
v -28.30765 -17.34695 -32.95667
v -29.58142 -15.07248 -32.95667
v -30.67280 -12.70509 -32.95667
v -31.57508 -10.25936 -32.95667
v -32.28268 -7.75039 -32.95667
v -32.79125 -5.19362 -32.95667
v -33.09766 -2.60484 -32.95667
v -33.20000 0.00000 -32.95667
v -33.09766 2.60484 -32.95667
v -32.79125 5.19362 -32.95667
v -32.28268 7.75039 -32.95667
v -31.57508 10.25936 -32.95667
v -30.67280 12.70509 -32.95667
v -29.58142 15.07248 -32.95667
v -28.30765 17.34695 -32.95667
v -26.85936 19.51447 -32.95667
v -25.24548 21.56168 -32.95667
v -23.47594 23.47594 -32.95667
v -21.56168 25.24548 -32.95667
v -19.51447 26.85936 -32.95667
v -17.34695 28.30765 -32.95667
v -15.07248 29.58142 -32.95667
v -12.70509 30.67280 -32.95667
v -10.25936 31.57508 -32.95667
v -7.75039 32.28268 -32.95667
v -5.19362 32.79125 -32.95667
v -2.60484 33.09766 -32.95667
v 0.00000 33.20000 -32.95667
v 2.60484 33.09766 -32.95667
v 5.19362 32.79125 -32.95667
v 7.75039 32.28268 -32.95667
v 10.25936 31.57508 -32.95667
v 12.70509 30.67280 -32.95667
v 15.07248 29.58142 -32.95667
v 17.34695 28.30765 -32.95667
v 19.51447 26.85936 -32.95667
v 21.56168 25.24548 -32.95667
v 23.47594 23.47594 -32.95667
v 25.24548 21.56168 -32.95667
v 26.85936 19.51447 -32.95667
v 28.30765 17.34695 -32.95667
v 29.58142 15.07248 -32.95667
v 30.67280 12.70509 -32.95667
v 31.57508 10.25936 -32.95667
v 32.28268 7.75039 -32.95667
v 32.79125 5.19362 -32.95667
vn -0.99204 -0.10421 0.07073
vn 0.98947 0.10325 -0.10143
vn -0.99751 0.00000 0.07051
vn 0.99562 0.00000 -0.09353
vn 0.98947 -0.10325 -0.10143
vn 0.97605 0.19242 -0.10147
vn -0.97827 -0.19491 0.07076
vn 0.95462 0.28002 -0.10143
vn -0.95622 -0.28396 0.07071
vn 0.92055 0.37827 -0.09747
vn -0.92123 -0.38183 0.07438
vn 0.87658 0.47046 -0.10136
vn -0.87667 -0.47588 0.07069
vn 0.83037 0.54790 -0.10142
vn -0.82924 -0.55441 0.07072
vn 0.77735 0.62085 -0.10141
vn -0.77480 -0.62825 0.07067
vn 0.71794 0.68869 -0.10133
vn -0.70501 -0.70529 0.07434
vn 0.64391 0.75887 -0.09743
vn -0.62786 -0.77512 0.07065
vn 0.56086 0.82168 -0.10137
vn -0.55399 -0.82952 0.07068
vn 0.48415 0.86909 -0.10138
vn -0.47544 -0.87691 0.07063
vn 0.40346 0.90937 -0.10133
vn -0.38148 -0.92139 0.07432
vn 0.30740 0.94658 -0.09741
vn -0.28348 -0.95637 0.07062
vn 0.20770 0.97293 -0.10131
vn -0.19442 -0.97837 0.07065
vn 0.11875 0.98774 -0.10135
vn -0.10371 -0.99210 0.07060
vn 0.02882 0.99444 -0.10132
vn 0.00013 -0.99724 0.07430
vn -0.07519 0.99240 -0.09739
vn 0.10404 -0.99206 0.07059
vn -0.17643 0.97909 -0.10126
vn 0.19475 -0.97831 0.07063
vn -0.26436 0.95909 -0.10132
vn 0.28381 -0.95628 0.07058
vn -0.35012 0.93121 -0.10132
vn 0.38171 -0.92129 0.07428
vn -0.43301 0.89568 -0.10124
vn 0.47573 -0.87675 0.07057
vn -0.52267 0.84696 -0.09737
vn 0.55427 -0.82934 0.07061
vn -0.60805 0.78741 -0.10129
vn 0.62812 -0.77491 0.07056
vn -0.67685 0.72911 -0.10131
vn 0.70520 -0.70511 0.07427
vn -0.74010 0.66483 -0.10126
vn 0.77501 -0.62799 0.07056
vn -0.80520 0.58495 -0.09736
vn 0.82943 -0.55413 0.07060
vn -0.86106 0.49831 -0.10126
vn 0.87683 -0.47559 0.07055
vn -0.90265 0.41829 -0.10130
vn 0.92134 -0.38160 0.07426
vn -0.93682 0.33484 -0.10128
vn 0.95633 -0.28364 0.07055
vn -0.96704 0.23526 -0.09735
vn 0.97834 -0.19458 0.07059
vn -0.98568 0.13490 -0.10122
vn 0.99208 -0.10388 0.07055
vn -0.99383 0.04509 -0.10129
vn 0.99724 0.00000 0.07426
vn -0.99383 -0.04509 -0.10129
vn 0.99208 0.10388 0.07055
vn -0.98568 -0.13490 -0.10122
vn 0.97834 0.19458 0.07059
vn -0.96704 -0.23526 -0.09735
vn 0.95633 0.28364 0.07055
vn -0.93682 -0.33484 -0.10128
vn 0.92134 0.38160 0.07426
vn -0.90265 -0.41829 -0.10130
vn 0.87683 0.47559 0.07055
vn -0.86106 -0.49831 -0.10126
vn 0.82943 0.55413 0.07060
vn -0.80520 -0.58495 -0.09736
vn 0.77501 0.62799 0.07056
vn -0.74010 -0.66483 -0.10126
vn 0.70520 0.70511 0.07427
vn -0.67685 -0.72911 -0.10131
vn 0.62812 0.77491 0.07056
vn -0.60805 -0.78741 -0.10129
vn 0.55427 0.82934 0.07061
vn -0.52267 -0.84696 -0.09737
vn 0.47573 0.87675 0.07057
vn -0.43301 -0.89568 -0.10124
vn 0.38171 0.92129 0.07428
vn -0.35012 -0.93121 -0.10132
vn 0.28381 0.95628 0.07058
vn -0.26436 -0.95909 -0.10132
vn 0.19475 0.97831 0.07063
vn -0.17643 -0.97909 -0.10126
vn 0.10404 0.99206 0.07059
vn -0.07519 -0.99240 -0.09739
vn 0.00013 0.99724 0.07430
vn 0.02882 -0.99444 -0.10132
vn -0.10371 0.99210 0.07060
vn 0.11875 -0.98774 -0.10135
vn -0.19442 0.97837 0.07065
vn 0.20770 -0.97293 -0.10131
vn -0.28348 0.95637 0.07062
vn 0.30740 -0.94658 -0.09741
vn -0.38148 0.92139 0.07432
vn 0.40346 -0.90937 -0.10133
vn -0.47544 0.87691 0.07063
vn 0.48415 -0.86909 -0.10138
vn -0.55399 0.82952 0.07068
vn 0.56086 -0.82168 -0.10137
vn -0.62786 0.77512 0.07065
vn 0.64391 -0.75887 -0.09743
vn -0.70501 0.70529 0.07434
vn 0.71794 -0.68869 -0.10133
vn -0.77480 0.62825 0.07067
vn 0.77735 -0.62085 -0.10141
vn -0.82924 0.55441 0.07072
vn 0.83037 -0.54790 -0.10142
vn -0.87667 0.47588 0.07069
vn 0.87658 -0.47046 -0.10136
vn -0.92123 0.38183 0.07438
vn 0.92055 -0.37827 -0.09747
vn -0.95622 0.28396 0.07071
vn 0.95462 -0.28002 -0.10143
vn -0.97827 0.19491 0.07076
vn 0.97605 -0.19242 -0.10147
vn -0.99204 0.10421 0.07073
vn 0.99310 0.08031 -0.08542
vn 0.99631 0.00872 -0.08540
vn 0.99417 -0.06586 -0.08541
vn 0.99635 0.00167 -0.08540
vn 0.99341 -0.07651 -0.08540
vn 0.99738 -0.01203 -0.07136
vn 0.99368 -0.09028 -0.06673
vn 0.98325 0.16100 -0.08539
vn 0.96686 0.24062 -0.08538
vn 0.94402 0.31864 -0.08540
vn 0.91713 0.38933 -0.08540
vn 0.88724 0.45333 -0.08543
vn 0.88699 0.45382 -0.08540
vn 0.84865 0.52202 -0.08540
vn 0.85669 0.51087 -0.07136
vn 0.81397 0.57651 -0.07136
vn 0.80508 0.58699 -0.08540
vn 0.76623 0.63859 -0.07136
vn 0.75654 0.64835 -0.08540
vn 0.71376 0.69674 -0.07136
vn 0.70334 0.70571 -0.08540
vn 0.65690 0.75060 -0.07136
vn 0.64580 0.75871 -0.08540
vn 0.59598 0.79982 -0.07136
vn 0.58428 0.80704 -0.08540
vn 0.53139 0.84412 -0.07136
vn 0.51916 0.85040 -0.08540
vn 0.46352 0.88321 -0.07136
vn 0.45084 0.88851 -0.08540
vn 0.39280 0.91685 -0.07136
vn 0.37974 0.92114 -0.08540
vn 0.31965 0.94484 -0.07136
vn 0.30630 0.94810 -0.08540
vn 0.24453 0.96701 -0.07136
vn 0.23097 0.96921 -0.08540
vn 0.16791 0.98322 -0.07136
vn 0.15421 0.98434 -0.08540
vn 0.09025 0.99336 -0.07136
vn 0.07651 0.99341 -0.08540
vn 0.01203 0.99704 -0.07599
vn -0.00167 0.99635 -0.08540
vn -0.06626 0.99525 -0.07136
vn -0.07984 0.99314 -0.08540
vn -0.14414 0.98698 -0.07136
vn -0.15752 0.98382 -0.08540
vn -0.22113 0.97263 -0.07136
vn -0.23422 0.96843 -0.08540
vn -0.29676 0.95228 -0.07136
vn -0.30948 0.94706 -0.08540
vn -0.37056 0.92606 -0.07136
vn -0.38283 0.91986 -0.08540
vn -0.44208 0.89413 -0.07136
vn -0.45382 0.88699 -0.08540
vn -0.51087 0.85669 -0.07136
vn -0.52202 0.84865 -0.08540
vn -0.57651 0.81397 -0.07136
vn -0.58699 0.80508 -0.08540
vn -0.63859 0.76623 -0.07136
vn -0.64835 0.75654 -0.08540
vn -0.69674 0.71376 -0.07136
vn -0.70571 0.70334 -0.08540
vn -0.75060 0.65690 -0.07136
vn -0.75871 0.64580 -0.08540
vn -0.79982 0.59598 -0.07136
vn -0.80704 0.58428 -0.08540
vn -0.84412 0.53139 -0.07136
vn -0.85040 0.51916 -0.08540
vn -0.88321 0.46352 -0.07136
vn -0.88851 0.45084 -0.08540
vn -0.91685 0.39280 -0.07136
vn -0.92114 0.37974 -0.08540
vn -0.94484 0.31965 -0.07136
vn -0.94810 0.30630 -0.08540
vn -0.96701 0.24453 -0.07136
vn -0.96921 0.23097 -0.08540
vn -0.98322 0.16791 -0.07136
vn -0.98434 0.15421 -0.08540
vn -0.99336 0.09025 -0.07136
vn -0.99341 0.07651 -0.08540
vn -0.99770 0.01204 -0.06673
vn -0.99635 -0.00167 -0.08540
vn -0.99525 -0.06626 -0.07136
vn -0.99314 -0.07984 -0.08540
vn -0.98698 -0.14414 -0.07136
vn -0.98382 -0.15752 -0.08540
vn -0.97263 -0.22113 -0.07136
vn -0.96843 -0.23422 -0.08540
vn -0.95228 -0.29676 -0.07136
vn -0.94706 -0.30948 -0.08540
vn -0.92606 -0.37056 -0.07136
vn -0.91986 -0.38283 -0.08540
vn -0.89413 -0.44208 -0.07136
vn -0.88699 -0.45382 -0.08540
vn -0.85669 -0.51087 -0.07136
vn -0.84865 -0.52202 -0.08540
vn -0.81397 -0.57651 -0.07136
vn -0.80508 -0.58699 -0.08540
vn -0.76623 -0.63859 -0.07136
vn -0.75654 -0.64835 -0.08540
vn -0.71376 -0.69674 -0.07136
vn -0.70334 -0.70571 -0.08540
vn -0.65690 -0.75060 -0.07136
vn -0.64580 -0.75871 -0.08540
vn -0.59598 -0.79982 -0.07136
vn -0.58428 -0.80704 -0.08540
vn -0.53139 -0.84412 -0.07136
vn -0.51916 -0.85040 -0.08540
vn -0.46352 -0.88321 -0.07136
vn -0.45084 -0.88851 -0.08540
vn -0.39280 -0.91685 -0.07136
vn -0.37974 -0.92114 -0.08540
vn -0.31965 -0.94484 -0.07136
vn -0.30630 -0.94810 -0.08540
vn -0.24453 -0.96701 -0.07136
vn -0.23097 -0.96921 -0.08540
vn -0.16791 -0.98322 -0.07136
vn -0.15421 -0.98434 -0.08540
vn -0.09025 -0.99336 -0.07136
vn -0.07651 -0.99341 -0.08540
vn -0.01203 -0.99704 -0.07599
vn 0.00167 -0.99635 -0.08540
vn 0.06626 -0.99525 -0.07136
vn 0.07984 -0.99314 -0.08540
vn 0.14414 -0.98698 -0.07136
vn 0.15752 -0.98382 -0.08540
vn 0.22113 -0.97263 -0.07136
vn 0.23422 -0.96843 -0.08540
vn 0.29676 -0.95228 -0.07136
vn 0.30948 -0.94706 -0.08540
vn 0.37056 -0.92606 -0.07136
vn 0.38283 -0.91986 -0.08540
vn 0.44208 -0.89413 -0.07136
vn 0.45382 -0.88699 -0.08540
vn 0.51087 -0.85669 -0.07136
vn 0.52202 -0.84865 -0.08540
vn 0.57651 -0.81397 -0.07136
vn 0.58699 -0.80508 -0.08540
vn 0.63859 -0.76623 -0.07136
vn 0.64835 -0.75654 -0.08540
vn 0.69674 -0.71376 -0.07136
vn 0.70571 -0.70334 -0.08540
vn 0.75060 -0.65690 -0.07136
vn 0.75871 -0.64580 -0.08540
vn 0.79982 -0.59598 -0.07136
vn 0.80704 -0.58428 -0.08540
vn 0.84412 -0.53139 -0.07136
vn 0.85040 -0.51916 -0.08540
vn 0.88321 -0.46352 -0.07136
vn 0.88851 -0.45084 -0.08540
vn 0.91685 -0.39280 -0.07136
vn 0.92114 -0.37974 -0.08540
vn 0.94484 -0.31965 -0.07136
vn 0.94810 -0.30630 -0.08540
vn 0.96701 -0.24453 -0.07136
vn 0.96921 -0.23097 -0.08540
vn 0.98322 -0.16791 -0.07136
vn 0.98434 -0.15421 -0.08540
vn 0.84733 0.52415 -0.08539
vn 0.80178 0.59148 -0.08538
vn 0.75089 0.65488 -0.08539
vn 0.69501 0.71391 -0.08542
vn 0.64042 0.76326 -0.08540
vn 0.58307 0.80792 -0.08540
vn 0.51527 0.85276 -0.08538
vn 0.44404 0.89193 -0.08538
vn 0.36985 0.92516 -0.08541
vn 0.29958 0.95024 -0.08540
vn 0.23051 0.96931 -0.08542
vn 0.15072 0.98488 -0.08539
vn 0.06993 0.99389 -0.08538
vn -0.01133 0.99628 -0.08540
vn -0.08687 0.99255 -0.08540
vn -0.15697 0.98390 -0.08543
vn -0.23666 0.96783 -0.08539
vn -0.31477 0.94532 -0.08538
vn -0.39079 0.91651 -0.08539
vn -0.46420 0.88160 -0.08542
vn -0.52801 0.84493 -0.08540
vn -0.58820 0.80420 -0.08540
vn -0.65180 0.75357 -0.08538
vn -0.71106 0.69793 -0.08538
vn -0.76559 0.63764 -0.08541
vn -0.81116 0.57856 -0.08540
vn -0.85064 0.51876 -0.08542
vn -0.89010 0.44769 -0.08539
vn -0.92364 0.37364 -0.08538
vn -0.95102 0.29710 -0.08540
vn -0.97082 0.22410 -0.08540
vn -0.98425 0.15475 -0.08543
vn -0.99360 0.07400 -0.08539
vn -0.99632 -0.00725 -0.08538
vn -0.99241 -0.08844 -0.08539
vn -0.98190 -0.16905 -0.08542
vn -0.96674 -0.24107 -0.08540
vn -0.94660 -0.31090 -0.08540
vn -0.91811 -0.38703 -0.08538
vn -0.88350 -0.46059 -0.08538
vn -0.84301 -0.53108 -0.08541
vn -0.80090 -0.59267 -0.08540
vn -0.75623 -0.64870 -0.08542
vn -0.70083 -0.70820 -0.08539
vn -0.64077 -0.76297 -0.08538
vn -0.57644 -0.81267 -0.08540
vn -0.51313 -0.85405 -0.08540
vn -0.45133 -0.88826 -0.08543
vn -0.37742 -0.92210 -0.08539
vn -0.30099 -0.94980 -0.08538
vn -0.22256 -0.97117 -0.08539
vn -0.14265 -0.98608 -0.08542
vn -0.06947 -0.99392 -0.08540
vn 0.00316 -0.99634 -0.08540
vn 0.08438 -0.99277 -0.08538
vn 0.16503 -0.98259 -0.08538
vn 0.24458 -0.96586 -0.08541
vn 0.31617 -0.94485 -0.08540
vn 0.38327 -0.91968 -0.08542
vn 0.45696 -0.88538 -0.08539
vn 0.52762 -0.84518 -0.08538
vn 0.59476 -0.79935 -0.08540
vn 0.65368 -0.75193 -0.08540
vn 0.70532 -0.70373 -0.08543
vn 0.76034 -0.64389 -0.08539
vn 0.81030 -0.57976 -0.08538
vn 0.85487 -0.51178 -0.08539
vn 0.89374 -0.44038 -0.08542
vn 0.92381 -0.37321 -0.08540
vn 0.94855 -0.30488 -0.08540
vn 0.97025 -0.22653 -0.08538
vn 0.98549 -0.14669 -0.08538
vn 0.89413 0.44208 -0.07136
vn 0.91986 0.38283 -0.08540
vn 0.92606 0.37056 -0.07136
vn 0.94706 0.30948 -0.08540
vn 0.95228 0.29676 -0.07136
vn 0.96843 0.23422 -0.08540
vn 0.97263 0.22113 -0.07136
vn 0.98382 0.15752 -0.08540
vn 0.98698 0.14414 -0.07136
vn 0.99314 0.07984 -0.08540
vn 0.99525 0.06626 -0.07136
vn -0.99088 -0.09001 0.10024
vn -0.99489 -0.01198 0.10024
vn -0.99324 0.06614 0.09544
vn -0.98452 0.14380 0.10024
vn -0.98077 -0.16747 0.10024
vn -0.96460 -0.24391 0.10024
vn -0.94249 -0.31884 0.10024
vn -0.91457 -0.39180 0.10024
vn -0.88101 -0.46235 0.10024
vn -0.84202 -0.53005 0.10024
vn -0.79784 -0.59448 0.10024
vn -0.74874 -0.65524 0.10024
vn -0.69502 -0.71197 0.10024
vn -0.63702 -0.76430 0.10024
vn -0.57509 -0.81193 0.10024
vn -0.50961 -0.85455 0.10024
vn -0.44099 -0.89189 0.10024
vn -0.36966 -0.92375 0.10024
vn -0.29604 -0.94990 0.10024
vn -0.22060 -0.97020 0.10024
vn -0.14380 -0.98452 0.10024
vn -0.06611 -0.99276 0.10024
vn 0.01198 -0.99440 0.10504
vn 0.09001 -0.99088 0.10024
vn 0.16747 -0.98077 0.10024
vn 0.24391 -0.96460 0.10024
vn 0.31884 -0.94249 0.10024
vn 0.39180 -0.91457 0.10024
vn 0.46235 -0.88101 0.10024
vn 0.53005 -0.84202 0.10024
vn 0.59448 -0.79784 0.10024
vn 0.65524 -0.74874 0.10024
vn 0.71197 -0.69502 0.10024
vn 0.76430 -0.63702 0.10024
vn 0.81193 -0.57509 0.10024
vn 0.85455 -0.50961 0.10024
vn 0.89189 -0.44099 0.10024
vn 0.92375 -0.36966 0.10024
vn 0.94990 -0.29604 0.10024
vn 0.97020 -0.22060 0.10024
vn 0.98452 -0.14380 0.10024
vn 0.99276 -0.06611 0.10024
vn 0.99536 0.01199 0.09544
vn 0.99088 0.09001 0.10024
vn 0.98077 0.16747 0.10024
vn 0.96460 0.24391 0.10024
vn 0.94249 0.31884 0.10024
vn 0.91457 0.39180 0.10024
vn 0.88101 0.46235 0.10024
vn 0.84202 0.53005 0.10024
vn 0.79784 0.59448 0.10024
vn 0.74874 0.65524 0.10024
vn 0.69502 0.71197 0.10024
vn 0.63702 0.76430 0.10024
vn 0.57509 0.81193 0.10024
vn 0.50961 0.85455 0.10024
vn 0.44099 0.89189 0.10024
vn 0.36966 0.92375 0.10024
vn 0.29604 0.94990 0.10024
vn 0.22060 0.97020 0.10024
vn 0.14380 0.98452 0.10024
vn 0.06611 0.99276 0.10024
vn -0.01198 0.99440 0.10504
vn -0.09001 0.99088 0.10024
vn -0.16747 0.98077 0.10024
vn -0.24391 0.96460 0.10024
vn -0.31884 0.94249 0.10024
vn -0.39180 0.91457 0.10024
vn -0.46235 0.88101 0.10024
vn -0.53005 0.84202 0.10024
vn -0.59448 0.79784 0.10024
vn -0.65524 0.74874 0.10024
vn -0.71197 0.69502 0.10024
vn -0.76430 0.63702 0.10024
vn -0.81193 0.57509 0.10024
vn -0.85455 0.50961 0.10024
vn -0.89189 0.44099 0.10024
vn -0.92375 0.36966 0.10024
vn -0.94990 0.29604 0.10024
vn -0.97020 0.22060 0.10024
vn -0.99336 -0.07647 0.08599
vn -0.99629 0.00171 0.08599
vn -0.99309 0.07987 0.08599
vn -0.98376 0.15754 0.08599
vn -0.96837 0.23424 0.08599
vn -0.94700 0.30950 0.08599
vn -0.91980 0.38284 0.08599
vn -0.88693 0.45383 0.08599
vn -0.84859 0.52202 0.08599
vn -0.80502 0.58699 0.08599
vn -0.75648 0.64834 0.08599
vn -0.70328 0.70569 0.08599
vn -0.64574 0.75870 0.08599
vn -0.58423 0.80702 0.08599
vn -0.51911 0.85037 0.08599
vn -0.45079 0.88848 0.08599
vn -0.37969 0.92111 0.08599
vn -0.30625 0.94806 0.08599
vn -0.23092 0.96917 0.08599
vn -0.15417 0.98430 0.08599
vn -0.07647 0.99336 0.08599
vn 0.00171 0.99629 0.08599
vn 0.07987 0.99309 0.08599
vn 0.15754 0.98376 0.08599
vn 0.23424 0.96837 0.08599
vn 0.30950 0.94700 0.08599
vn 0.38284 0.91980 0.08599
vn 0.45383 0.88693 0.08599
vn 0.52202 0.84859 0.08599
vn 0.58699 0.80502 0.08599
vn 0.64834 0.75648 0.08599
vn 0.70569 0.70328 0.08599
vn 0.75870 0.64574 0.08599
vn 0.80702 0.58423 0.08599
vn 0.85037 0.51911 0.08599
vn 0.88848 0.45079 0.08599
vn 0.92111 0.37969 0.08599
vn 0.94806 0.30625 0.08599
vn 0.96917 0.23092 0.08599
vn 0.98430 0.15417 0.08599
vn 0.99336 0.07647 0.08599
vn 0.99629 -0.00171 0.08599
vn 0.99309 -0.07987 0.08599
vn 0.98376 -0.15754 0.08599
vn 0.96837 -0.23424 0.08599
vn 0.94700 -0.30950 0.08599
vn 0.91980 -0.38284 0.08599
vn 0.88693 -0.45383 0.08599
vn 0.84859 -0.52202 0.08599
vn 0.80502 -0.58699 0.08599
vn 0.75648 -0.64834 0.08599
vn 0.70328 -0.70569 0.08599
vn 0.64574 -0.75870 0.08599
vn 0.58423 -0.80702 0.08599
vn 0.51911 -0.85037 0.08599
vn 0.45079 -0.88848 0.08599
vn 0.37969 -0.92111 0.08599
vn 0.30625 -0.94806 0.08599
vn 0.23092 -0.96917 0.08599
vn 0.15417 -0.98430 0.08599
vn 0.07647 -0.99336 0.08599
vn -0.00171 -0.99629 0.08599
vn -0.07987 -0.99309 0.08599
vn -0.15754 -0.98376 0.08599
vn -0.23424 -0.96837 0.08599
vn -0.30950 -0.94700 0.08599
vn -0.38284 -0.91980 0.08599
vn -0.45383 -0.88693 0.08599
vn -0.52202 -0.84859 0.08599
vn -0.58699 -0.80502 0.08599
vn -0.64834 -0.75648 0.08599
vn -0.70569 -0.70328 0.08599
vn -0.75870 -0.64574 0.08599
vn -0.80702 -0.58423 0.08599
vn -0.85037 -0.51911 0.08599
vn -0.88848 -0.45079 0.08599
vn -0.92111 -0.37969 0.08599
vn -0.94806 -0.30625 0.08599
vn -0.96917 -0.23092 0.08599
vn -0.98430 -0.15417 0.08599
vn -0.99305 0.08039 0.08600
vn -0.99626 0.00874 0.08598
vn -0.99411 -0.06593 0.08600
vn -0.98314 0.16136 0.08598
vn -0.96665 0.24125 0.08597
vn -0.94367 0.31951 0.08600
vn -0.91708 0.38933 0.08598
vn -0.88669 0.45430 0.08600
vn -0.84656 0.52531 0.08598
vn -0.80075 0.59280 0.08597
vn -0.74957 0.65632 0.08600
vn -0.69828 0.71064 0.08598
vn -0.64534 0.75904 0.08600
vn -0.58109 0.80929 0.08598
vn -0.51294 0.85411 0.08597
vn -0.44134 0.89321 0.08600
vn -0.37317 0.92377 0.08598
vn -0.30575 0.94822 0.08600
vn -0.22715 0.97006 0.08598
vn -0.14704 0.98539 0.08597
vn -0.06593 0.99411 0.08600
vn 0.00874 0.99626 0.08598
vn 0.08039 0.99305 0.08600
vn 0.16136 0.98314 0.08598
vn 0.24125 0.96665 0.08597
vn 0.31951 0.94367 0.08600
vn 0.38933 0.91708 0.08598
vn 0.45430 0.88669 0.08600
vn 0.52531 0.84656 0.08598
vn 0.59280 0.80075 0.08597
vn 0.65632 0.74957 0.08600
vn 0.71064 0.69828 0.08598
vn 0.75904 0.64534 0.08600
vn 0.80929 0.58109 0.08598
vn 0.85411 0.51294 0.08597
vn 0.89321 0.44134 0.08600
vn 0.92377 0.37317 0.08598
vn 0.94822 0.30575 0.08600
vn 0.97006 0.22715 0.08598
vn 0.98539 0.14704 0.08597
vn 0.99411 0.06593 0.08600
vn 0.99626 -0.00874 0.08598
vn 0.99305 -0.08039 0.08600
vn 0.98314 -0.16136 0.08598
vn 0.96665 -0.24125 0.08597
vn 0.94367 -0.31951 0.08600
vn 0.91708 -0.38933 0.08598
vn 0.88669 -0.45430 0.08600
vn 0.84656 -0.52531 0.08598
vn 0.80075 -0.59280 0.08597
vn 0.74957 -0.65632 0.08600
vn 0.69828 -0.71064 0.08598
vn 0.64534 -0.75904 0.08600
vn 0.58109 -0.80929 0.08598
vn 0.51294 -0.85411 0.08597
vn 0.44134 -0.89321 0.08600
vn 0.37317 -0.92377 0.08598
vn 0.30575 -0.94822 0.08600
vn 0.22715 -0.97006 0.08598
vn 0.14704 -0.98539 0.08597
vn 0.06593 -0.99411 0.08600
vn -0.00874 -0.99626 0.08598
vn -0.08039 -0.99305 0.08600
vn -0.16136 -0.98314 0.08598
vn -0.24125 -0.96665 0.08597
vn -0.31951 -0.94367 0.08600
vn -0.38933 -0.91708 0.08598
vn -0.45430 -0.88669 0.08600
vn -0.52531 -0.84656 0.08598
vn -0.59280 -0.80075 0.08597
vn -0.65632 -0.74957 0.08600
vn -0.71064 -0.69828 0.08598
vn -0.75904 -0.64534 0.08600
vn -0.80929 -0.58109 0.08598
vn -0.85411 -0.51294 0.08597
vn -0.89321 -0.44134 0.08600
vn -0.92377 -0.37317 0.08598
vn -0.94822 -0.30575 0.08600
vn -0.97006 -0.22715 0.08598
vn -0.98539 -0.14704 0.08597
usemtl stainless
f 1//1 2//2 3//3
f 3//3 2//2 4//4
f 3//3 4//4 5//5
f 2//2 1//1 6//6
f 6//6 1//1 7//7
f 6//6 7//7 8//8
f 8//8 7//7 9//9
f 8//8 9//9 10//10
f 10//10 9//9 11//11
f 10//10 11//11 12//12
f 12//12 11//11 13//13
f 12//12 13//13 14//14
f 14//14 13//13 15//15
f 14//14 15//15 16//16
f 16//16 15//15 17//17
f 16//16 17//17 18//18
f 18//18 17//17 19//19
f 18//18 19//19 20//20
f 20//20 19//19 21//21
f 20//20 21//21 22//22
f 22//22 21//21 23//23
f 22//22 23//23 24//24
f 24//24 23//23 25//25
f 24//24 25//25 26//26
f 26//26 25//25 27//27
f 26//26 27//27 28//28
f 28//28 27//27 29//29
f 28//28 29//29 30//30
f 30//30 29//29 31//31
f 30//30 31//31 32//32
f 32//32 31//31 33//33
f 32//32 33//33 34//34
f 34//34 33//33 35//35
f 34//34 35//35 36//36
f 36//36 35//35 37//37
f 36//36 37//37 38//38
f 38//38 37//37 39//39
f 38//38 39//39 40//40
f 40//40 39//39 41//41
f 40//40 41//41 42//42
f 42//42 41//41 43//43
f 42//42 43//43 44//44
f 44//44 43//43 45//45
f 44//44 45//45 46//46
f 46//46 45//45 47//47
f 46//46 47//47 48//48
f 48//48 47//47 49//49
f 48//48 49//49 50//50
f 50//50 49//49 51//51
f 50//50 51//51 52//52
f 52//52 51//51 53//53
f 52//52 53//53 54//54
f 54//54 53//53 55//55
f 54//54 55//55 56//56
f 56//56 55//55 57//57
f 56//56 57//57 58//58
f 58//58 57//57 59//59
f 58//58 59//59 60//60
f 60//60 59//59 61//61
f 60//60 61//61 62//62
f 62//62 61//61 63//63
f 62//62 63//63 64//64
f 64//64 63//63 65//65
f 64//64 65//65 66//66
f 66//66 65//65 67//67
f 66//66 67//67 68//68
f 68//68 67//67 69//69
f 68//68 69//69 70//70
f 70//70 69//69 71//71
f 70//70 71//71 72//72
f 72//72 71//71 73//73
f 72//72 73//73 74//74
f 74//74 73//73 75//75
f 74//74 75//75 76//76
f 76//76 75//75 77//77
f 76//76 77//77 78//78
f 78//78 77//77 79//79
f 78//78 79//79 80//80
f 80//80 79//79 81//81
f 80//80 81//81 82//82
f 82//82 81//81 83//83
f 82//82 83//83 84//84
f 84//84 83//83 85//85
f 84//84 85//85 86//86
f 86//86 85//85 87//87
f 86//86 87//87 88//88
f 88//88 87//87 89//89
f 88//88 89//89 90//90
f 90//90 89//89 91//91
f 90//90 91//91 92//92
f 92//92 91//91 93//93
f 92//92 93//93 94//94
f 94//94 93//93 95//95
f 94//94 95//95 96//96
f 96//96 95//95 97//97
f 96//96 97//97 98//98
f 98//98 97//97 99//99
f 98//98 99//99 100//100
f 100//100 99//99 101//101
f 100//100 101//101 102//102
f 102//102 101//101 103//103
f 102//102 103//103 104//104
f 104//104 103//103 105//105
f 104//104 105//105 106//106
f 106//106 105//105 107//107
f 106//106 107//107 108//108
f 108//108 107//107 109//109
f 108//108 109//109 110//110
f 110//110 109//109 111//111
f 110//110 111//111 112//112
f 112//112 111//111 113//113
f 112//112 113//113 114//114
f 114//114 113//113 115//115
f 114//114 115//115 116//116
f 116//116 115//115 117//117
f 116//116 117//117 118//118
f 118//118 117//117 119//119
f 118//118 119//119 120//120
f 120//120 119//119 121//121
f 120//120 121//121 122//122
f 122//122 121//121 123//123
f 122//122 123//123 124//124
f 124//124 123//123 125//125
f 124//124 125//125 126//126
f 126//126 125//125 127//127
f 126//126 127//127 128//128
f 128//128 127//127 129//129
f 128//128 129//129 5//5
f 5//5 129//129 3//3
f 2//2 130//130 4//4
f 4//4 130//130 131//131
f 4//4 131//131 132//132
f 132//132 131//131 133//133
f 132//132 133//133 134//134
f 134//134 133//133 135//135
f 134//134 135//135 136//136
f 130//130 2//2 137//137
f 137//137 2//2 6//6
f 137//137 6//6 138//138
f 138//138 6//6 8//8
f 138//138 8//8 139//139
f 139//139 8//8 10//10
f 139//139 10//10 140//140
f 140//140 10//10 141//141
f 140//140 141//141 142//142
f 142//142 141//141 143//143
f 142//142 143//143 144//144
f 144//144 143//143 145//145
f 145//145 143//143 146//146
f 145//145 146//146 147//147
f 147//147 146//146 148//148
f 147//147 148//148 149//149
f 149//149 148//148 150//150
f 149//149 150//150 151//151
f 151//151 150//150 152//152
f 151//151 152//152 153//153
f 153//153 152//152 154//154
f 153//153 154//154 155//155
f 155//155 154//154 156//156
f 155//155 156//156 157//157
f 157//157 156//156 158//158
f 157//157 158//158 159//159
f 159//159 158//158 160//160
f 159//159 160//160 161//161
f 161//161 160//160 162//162
f 161//161 162//162 163//163
f 163//163 162//162 164//164
f 163//163 164//164 165//165
f 165//165 164//164 166//166
f 165//165 166//166 167//167
f 167//167 166//166 168//168
f 167//167 168//168 169//169
f 169//169 168//168 170//170
f 169//169 170//170 171//171
f 171//171 170//170 172//172
f 171//171 172//172 173//173
f 173//173 172//172 174//174
f 173//173 174//174 175//175
f 175//175 174//174 176//176
f 175//175 176//176 177//177
f 177//177 176//176 178//178
f 177//177 178//178 179//179
f 179//179 178//178 180//180
f 179//179 180//180 181//181
f 181//181 180//180 182//182
f 181//181 182//182 183//183
f 183//183 182//182 184//184
f 183//183 184//184 185//185
f 185//185 184//184 186//186
f 185//185 186//186 187//187
f 187//187 186//186 188//188
f 187//187 188//188 189//189
f 189//189 188//188 190//190
f 189//189 190//190 191//191
f 191//191 190//190 192//192
f 191//191 192//192 193//193
f 193//193 192//192 194//194
f 193//193 194//194 195//195
f 195//195 194//194 196//196
f 195//195 196//196 197//197
f 197//197 196//196 198//198
f 197//197 198//198 199//199
f 199//199 198//198 200//200
f 199//199 200//200 201//201
f 201//201 200//200 202//202
f 201//201 202//202 203//203
f 203//203 202//202 204//204
f 203//203 204//204 205//205
f 205//205 204//204 206//206
f 205//205 206//206 207//207
f 207//207 206//206 208//208
f 207//207 208//208 209//209
f 209//209 208//208 210//210
f 209//209 210//210 211//211
f 211//211 210//210 212//212
f 211//211 212//212 213//213
f 213//213 212//212 214//214
f 213//213 214//214 215//215
f 215//215 214//214 216//216
f 215//215 216//216 217//217
f 217//217 216//216 218//218
f 217//217 218//218 219//219
f 219//219 218//218 220//220
f 219//219 220//220 221//221
f 221//221 220//220 222//222
f 221//221 222//222 223//223
f 223//223 222//222 224//224
f 223//223 224//224 225//225
f 225//225 224//224 226//226
f 225//225 226//226 227//227
f 227//227 226//226 228//228
f 227//227 228//228 229//229
f 229//229 228//228 230//230
f 229//229 230//230 231//231
f 231//231 230//230 232//232
f 231//231 232//232 233//233
f 233//233 232//232 234//234
f 233//233 234//234 235//235
f 235//235 234//234 236//236
f 235//235 236//236 237//237
f 237//237 236//236 238//238
f 237//237 238//238 239//239
f 239//239 238//238 240//240
f 239//239 240//240 241//241
f 241//241 240//240 242//242
f 241//241 242//242 243//243
f 243//243 242//242 244//244
f 243//243 244//244 245//245
f 245//245 244//244 246//246
f 245//245 246//246 247//247
f 247//247 246//246 248//248
f 247//247 248//248 249//249
f 249//249 248//248 250//250
f 249//249 250//250 251//251
f 251//251 250//250 252//252
f 251//251 252//252 253//253
f 253//253 252//252 254//254
f 253//253 254//254 255//255
f 255//255 254//254 256//256
f 255//255 256//256 257//257
f 257//257 256//256 258//258
f 257//257 258//258 259//259
f 259//259 258//258 260//260
f 259//259 260//260 261//261
f 261//261 260//260 262//262
f 261//261 262//262 263//263
f 263//263 262//262 264//264
f 263//263 264//264 265//265
f 265//265 264//264 266//266
f 265//265 266//266 267//267
f 267//267 266//266 268//268
f 267//267 268//268 269//269
f 269//269 268//268 270//270
f 269//269 270//270 271//271
f 271//271 270//270 272//272
f 271//271 272//272 273//273
f 273//273 272//272 274//274
f 273//273 274//274 275//275
f 275//275 274//274 276//276
f 275//275 276//276 277//277
f 277//277 276//276 278//278
f 277//277 278//278 279//279
f 279//279 278//278 280//280
f 279//279 280//280 281//281
f 281//281 280//280 282//282
f 281//281 282//282 283//283
f 283//283 282//282 284//284
f 283//283 284//284 285//285
f 285//285 284//284 286//286
f 285//285 286//286 136//136
f 136//136 286//286 134//134
f 10//10 12//12 141//141
f 141//141 12//12 287//287
f 141//141 287//287 143//143
f 143//143 287//287 146//146
f 12//12 14//14 287//287
f 287//287 14//14 288//288
f 287//287 288//288 146//146
f 146//146 288//288 148//148
f 14//14 16//16 288//288
f 288//288 16//16 289//289
f 288//288 289//289 148//148
f 148//148 289//289 150//150
f 16//16 18//18 289//289
f 289//289 18//18 290//290
f 289//289 290//290 150//150
f 150//150 290//290 152//152
f 18//18 20//20 290//290
f 290//290 20//20 291//291
f 290//290 291//291 152//152
f 152//152 291//291 154//154
f 291//291 20//20 292//292
f 292//292 20//20 22//22
f 292//292 22//22 293//293
f 293//293 22//22 24//24
f 293//293 24//24 294//294
f 294//294 24//24 26//26
f 294//294 26//26 295//295
f 295//295 26//26 28//28
f 295//295 28//28 296//296
f 296//296 28//28 297//297
f 296//296 297//297 164//164
f 164//164 297//297 166//166
f 28//28 30//30 297//297
f 297//297 30//30 298//298
f 297//297 298//298 166//166
f 166//166 298//298 168//168
f 30//30 32//32 298//298
f 298//298 32//32 299//299
f 298//298 299//299 168//168
f 168//168 299//299 170//170
f 32//32 34//34 299//299
f 299//299 34//34 300//300
f 299//299 300//300 170//170
f 170//170 300//300 172//172
f 34//34 36//36 300//300
f 300//300 36//36 301//301
f 300//300 301//301 172//172
f 172//172 301//301 174//174
f 301//301 36//36 302//302
f 302//302 36//36 38//38
f 302//302 38//38 303//303
f 303//303 38//38 40//40
f 303//303 40//40 304//304
f 304//304 40//40 42//42
f 304//304 42//42 305//305
f 305//305 42//42 44//44
f 305//305 44//44 306//306
f 306//306 44//44 46//46
f 306//306 46//46 307//307
f 307//307 46//46 308//308
f 307//307 308//308 186//186
f 186//186 308//308 188//188
f 46//46 48//48 308//308
f 308//308 48//48 309//309
f 308//308 309//309 188//188
f 188//188 309//309 190//190
f 48//48 50//50 309//309
f 309//309 50//50 310//310
f 309//309 310//310 190//190
f 190//190 310//310 192//192
f 50//50 52//52 310//310
f 310//310 52//52 311//311
f 310//310 311//311 192//192
f 192//192 311//311 194//194
f 52//52 54//54 311//311
f 311//311 54//54 312//312
f 311//311 312//312 194//194
f 194//194 312//312 196//196
f 312//312 54//54 313//313
f 313//313 54//54 56//56
f 313//313 56//56 314//314
f 314//314 56//56 58//58
f 314//314 58//58 315//315
f 315//315 58//58 60//60
f 315//315 60//60 316//316
f 316//316 60//60 62//62
f 316//316 62//62 317//317
f 317//317 62//62 318//318
f 317//317 318//318 206//206
f 206//206 318//318 208//208
f 62//62 64//64 318//318
f 318//318 64//64 319//319
f 318//318 319//319 208//208
f 208//208 319//319 210//210
f 64//64 66//66 319//319
f 319//319 66//66 320//320
f 319//319 320//320 210//210
f 210//210 320//320 212//212
f 66//66 68//68 320//320
f 320//320 68//68 321//321
f 320//320 321//321 212//212
f 212//212 321//321 214//214
f 68//68 70//70 321//321
f 321//321 70//70 322//322
f 321//321 322//322 214//214
f 214//214 322//322 216//216
f 70//70 72//72 322//322
f 322//322 72//72 323//323
f 322//322 323//323 216//216
f 216//216 323//323 218//218
f 323//323 72//72 324//324
f 324//324 72//72 74//74
f 324//324 74//74 325//325
f 325//325 74//74 76//76
f 325//325 76//76 326//326
f 326//326 76//76 78//78
f 326//326 78//78 327//327
f 327//327 78//78 80//80
f 327//327 80//80 328//328
f 328//328 80//80 329//329
f 328//328 329//329 228//228
f 228//228 329//329 230//230
f 80//80 82//82 329//329
f 329//329 82//82 330//330
f 329//329 330//330 230//230
f 230//230 330//330 232//232
f 82//82 84//84 330//330
f 330//330 84//84 331//331
f 330//330 331//331 232//232
f 232//232 331//331 234//234
f 84//84 86//86 331//331
f 331//331 86//86 332//332
f 331//331 332//332 234//234
f 234//234 332//332 236//236
f 86//86 88//88 332//332
f 332//332 88//88 333//333
f 332//332 333//333 236//236
f 236//236 333//333 238//238
f 333//333 88//88 334//334
f 334//334 88//88 90//90
f 334//334 90//90 335//335
f 335//335 90//90 92//92
f 335//335 92//92 336//336
f 336//336 92//92 94//94
f 336//336 94//94 337//337
f 337//337 94//94 96//96
f 337//337 96//96 338//338
f 338//338 96//96 98//98
f 338//338 98//98 339//339
f 339//339 98//98 340//340
f 339//339 340//340 250//250
f 250//250 340//340 252//252
f 98//98 100//100 340//340
f 340//340 100//100 341//341
f 340//340 341//341 252//252
f 252//252 341//341 254//254
f 100//100 102//102 341//341
f 341//341 102//102 342//342
f 341//341 342//342 254//254
f 254//254 342//342 256//256
f 102//102 104//104 342//342
f 342//342 104//104 343//343
f 342//342 343//343 256//256
f 256//256 343//343 258//258
f 104//104 106//106 343//343
f 343//343 106//106 344//344
f 343//343 344//344 258//258
f 258//258 344//344 260//260
f 344//344 106//106 345//345
f 345//345 106//106 108//108
f 345//345 108//108 346//346
f 346//346 108//108 110//110
f 346//346 110//110 347//347
f 347//347 110//110 112//112
f 347//347 112//112 348//348
f 348//348 112//112 114//114
f 348//348 114//114 349//349
f 349//349 114//114 350//350
f 349//349 350//350 270//270
f 270//270 350//350 272//272
f 114//114 116//116 350//350
f 350//350 116//116 351//351
f 350//350 351//351 272//272
f 272//272 351//351 274//274
f 116//116 118//118 351//351
f 351//351 118//118 352//352
f 351//351 352//352 274//274
f 274//274 352//352 276//276
f 118//118 120//120 352//352
f 352//352 120//120 353//353
f 352//352 353//353 276//276
f 276//276 353//353 278//278
f 120//120 122//122 353//353
f 353//353 122//122 354//354
f 353//353 354//354 278//278
f 278//278 354//354 280//280
f 122//122 124//124 354//354
f 354//354 124//124 355//355
f 354//354 355//355 280//280
f 280//280 355//355 282//282
f 355//355 124//124 356//356
f 356//356 124//124 126//126
f 356//356 126//126 357//357
f 357//357 126//126 128//128
f 357//357 128//128 358//358
f 358//358 128//128 5//5
f 358//358 5//5 132//132
f 132//132 5//5 4//4
f 144//144 359//359 142//142
f 142//142 359//359 360//360
f 142//142 360//360 140//140
f 140//140 360//360 139//139
f 359//359 361//361 360//360
f 360//360 361//361 362//362
f 360//360 362//362 139//139
f 139//139 362//362 138//138
f 361//361 363//363 362//362
f 362//362 363//363 364//364
f 362//362 364//364 138//138
f 138//138 364//364 137//137
f 363//363 365//365 364//364
f 364//364 365//365 366//366
f 364//364 366//366 137//137
f 137//137 366//366 130//130
f 365//365 367//367 366//366
f 366//366 367//367 368//368
f 366//366 368//368 130//130
f 130//130 368//368 131//131
f 367//367 369//369 368//368
f 368//368 369//369 133//133
f 368//368 133//133 131//131
f 369//369 135//135 133//133
f 156//156 154//154 292//292
f 292//292 154//154 291//291
f 158//158 156//156 293//293
f 293//293 156//156 292//292
f 160//160 158//158 294//294
f 294//294 158//158 293//293
f 162//162 160//160 295//295
f 295//295 160//160 294//294
f 296//296 164//164 162//162
f 295//295 296//296 162//162
f 303//303 176//176 302//302
f 302//302 176//176 174//174
f 302//302 174//174 301//301
f 176//176 303//303 178//178
f 178//178 303//303 304//304
f 178//178 304//304 180//180
f 180//180 304//304 305//305
f 180//180 305//305 182//182
f 182//182 305//305 306//306
f 182//182 306//306 184//184
f 184//184 306//306 307//307
f 184//184 307//307 186//186
f 198//198 196//196 313//313
f 313//313 196//196 312//312
f 200//200 198//198 314//314
f 314//314 198//198 313//313
f 202//202 200//200 315//315
f 315//315 200//200 314//314
f 204//204 202//202 316//316
f 316//316 202//202 315//315
f 206//206 204//204 317//317
f 317//317 204//204 316//316
f 220//220 218//218 324//324
f 324//324 218//218 323//323
f 222//222 220//220 325//325
f 325//325 220//220 324//324
f 224//224 222//222 326//326
f 326//326 222//222 325//325
f 226//226 224//224 327//327
f 327//327 224//224 326//326
f 328//328 228//228 226//226
f 327//327 328//328 226//226
f 335//335 240//240 334//334
f 334//334 240//240 238//238
f 334//334 238//238 333//333
f 240//240 335//335 242//242
f 242//242 335//335 336//336
f 242//242 336//336 244//244
f 244//244 336//336 337//337
f 244//244 337//337 246//246
f 246//246 337//337 338//338
f 246//246 338//338 248//248
f 248//248 338//338 339//339
f 248//248 339//339 250//250
f 262//262 260//260 345//345
f 345//345 260//260 344//344
f 264//264 262//262 346//346
f 346//346 262//262 345//345
f 266//266 264//264 347//347
f 347//347 264//264 346//346
f 268//268 266//266 348//348
f 348//348 266//266 347//347
f 270//270 268//268 349//349
f 349//349 268//268 348//348
f 284//284 282//282 356//356
f 356//356 282//282 355//355
f 286//286 284//284 357//357
f 357//357 284//284 356//356
f 134//134 286//286 358//358
f 358//358 286//286 357//357
f 132//132 134//134 358//358
f 369//369 370//370 135//135
f 135//135 370//370 371//371
f 135//135 371//371 136//136
f 136//136 371//371 372//372
f 136//136 372//372 373//373
f 370//370 369//369 374//374
f 374//374 369//369 367//367
f 374//374 367//367 375//375
f 375//375 367//367 365//365
f 375//375 365//365 376//376
f 376//376 365//365 363//363
f 376//376 363//363 377//377
f 377//377 363//363 361//361
f 377//377 361//361 378//378
f 378//378 361//361 359//359
f 378//378 359//359 379//379
f 379//379 359//359 144//144
f 379//379 144//144 380//380
f 380//380 144//144 145//145
f 380//380 145//145 381//381
f 381//381 145//145 147//147
f 381//381 147//147 382//382
f 382//382 147//147 149//149
f 382//382 149//149 383//383
f 383//383 149//149 151//151
f 383//383 151//151 384//384
f 384//384 151//151 153//153
f 384//384 153//153 385//385
f 385//385 153//153 155//155
f 385//385 155//155 386//386
f 386//386 155//155 157//157
f 386//386 157//157 387//387
f 387//387 157//157 159//159
f 387//387 159//159 388//388
f 388//388 159//159 161//161
f 388//388 161//161 389//389
f 389//389 161//161 163//163
f 389//389 163//163 390//390
f 390//390 163//163 165//165
f 390//390 165//165 391//391
f 391//391 165//165 167//167
f 391//391 167//167 392//392
f 392//392 167//167 169//169
f 392//392 169//169 171//171
f 392//392 171//171 393//393
f 393//393 171//171 173//173
f 393//393 173//173 394//394
f 394//394 173//173 175//175
f 394//394 175//175 395//395
f 395//395 175//175 177//177
f 395//395 177//177 396//396
f 396//396 177//177 179//179
f 396//396 179//179 397//397
f 397//397 179//179 181//181
f 397//397 181//181 398//398
f 398//398 181//181 183//183
f 398//398 183//183 399//399
f 399//399 183//183 185//185
f 399//399 185//185 400//400
f 400//400 185//185 187//187
f 400//400 187//187 401//401
f 401//401 187//187 189//189
f 401//401 189//189 402//402
f 402//402 189//189 191//191
f 402//402 191//191 403//403
f 403//403 191//191 193//193
f 403//403 193//193 404//404
f 404//404 193//193 195//195
f 404//404 195//195 405//405
f 405//405 195//195 197//197
f 405//405 197//197 406//406
f 406//406 197//197 199//199
f 406//406 199//199 407//407
f 407//407 199//199 201//201
f 407//407 201//201 408//408
f 408//408 201//201 203//203
f 408//408 203//203 409//409
f 409//409 203//203 205//205
f 409//409 205//205 410//410
f 410//410 205//205 207//207
f 410//410 207//207 411//411
f 411//411 207//207 209//209
f 411//411 209//209 412//412
f 412//412 209//209 413//413
f 413//413 209//209 211//211
f 413//413 211//211 414//414
f 414//414 211//211 213//213
f 414//414 213//213 415//415
f 415//415 213//213 215//215
f 415//415 215//215 416//416
f 416//416 215//215 217//217
f 416//416 217//217 417//417
f 417//417 217//217 219//219
f 417//417 219//219 418//418
f 418//418 219//219 221//221
f 418//418 221//221 419//419
f 419//419 221//221 223//223
f 419//419 223//223 420//420
f 420//420 223//223 225//225
f 420//420 225//225 421//421
f 421//421 225//225 227//227
f 421//421 227//227 422//422
f 422//422 227//227 229//229
f 422//422 229//229 423//423
f 423//423 229//229 231//231
f 423//423 231//231 424//424
f 424//424 231//231 233//233
f 424//424 233//233 425//425
f 425//425 233//233 235//235
f 425//425 235//235 426//426
f 426//426 235//235 237//237
f 426//426 237//237 427//427
f 427//427 237//237 239//239
f 427//427 239//239 428//428
f 428//428 239//239 241//241
f 428//428 241//241 429//429
f 429//429 241//241 243//243
f 429//429 243//243 430//430
f 430//430 243//243 245//245
f 430//430 245//245 431//431
f 431//431 245//245 247//247
f 431//431 247//247 432//432
f 432//432 247//247 249//249
f 432//432 249//249 251//251
f 432//432 251//251 433//433
f 433//433 251//251 253//253
f 433//433 253//253 434//434
f 434//434 253//253 255//255
f 434//434 255//255 435//435
f 435//435 255//255 257//257
f 435//435 257//257 436//436
f 436//436 257//257 259//259
f 436//436 259//259 437//437
f 437//437 259//259 261//261
f 437//437 261//261 438//438
f 438//438 261//261 263//263
f 438//438 263//263 439//439
f 439//439 263//263 265//265
f 439//439 265//265 440//440
f 440//440 265//265 267//267
f 440//440 267//267 441//441
f 441//441 267//267 269//269
f 441//441 269//269 442//442
f 442//442 269//269 271//271
f 442//442 271//271 443//443
f 443//443 271//271 273//273
f 443//443 273//273 444//444
f 444//444 273//273 275//275
f 444//444 275//275 445//445
f 445//445 275//275 277//277
f 445//445 277//277 446//446
f 446//446 277//277 279//279
f 446//446 279//279 447//447
f 447//447 279//279 281//281
f 447//447 281//281 448//448
f 448//448 281//281 283//283
f 448//448 283//283 449//449
f 449//449 283//283 285//285
f 449//449 285//285 373//373
f 373//373 285//285 136//136
f 370//370 450//450 371//371
f 371//371 450//450 451//451
f 371//371 451//451 372//372
f 372//372 451//451 452//452
f 372//372 452//452 373//373
f 373//373 452//452 453//453
f 373//373 453//453 449//449
f 449//449 453//453 454//454
f 449//449 454//454 448//448
f 448//448 454//454 455//455
f 448//448 455//455 447//447
f 447//447 455//455 456//456
f 447//447 456//456 446//446
f 446//446 456//456 457//457
f 446//446 457//457 445//445
f 445//445 457//457 458//458
f 445//445 458//458 444//444
f 444//444 458//458 459//459
f 444//444 459//459 443//443
f 443//443 459//459 460//460
f 443//443 460//460 442//442
f 442//442 460//460 461//461
f 442//442 461//461 441//441
f 441//441 461//461 462//462
f 441//441 462//462 440//440
f 440//440 462//462 463//463
f 440//440 463//463 439//439
f 439//439 463//463 464//464
f 439//439 464//464 438//438
f 438//438 464//464 465//465
f 438//438 465//465 437//437
f 437//437 465//465 466//466
f 437//437 466//466 436//436
f 436//436 466//466 467//467
f 436//436 467//467 435//435
f 435//435 467//467 468//468
f 435//435 468//468 434//434
f 434//434 468//468 469//469
f 434//434 469//469 433//433
f 433//433 469//469 470//470
f 433//433 470//470 432//432
f 432//432 470//470 471//471
f 432//432 471//471 431//431
f 431//431 471//471 472//472
f 431//431 472//472 430//430
f 430//430 472//472 473//473
f 430//430 473//473 429//429
f 429//429 473//473 474//474
f 429//429 474//474 428//428
f 428//428 474//474 475//475
f 428//428 475//475 427//427
f 427//427 475//475 476//476
f 427//427 476//476 426//426
f 426//426 476//476 477//477
f 426//426 477//477 425//425
f 425//425 477//477 478//478
f 425//425 478//478 424//424
f 424//424 478//478 479//479
f 424//424 479//479 423//423
f 423//423 479//479 480//480
f 423//423 480//480 422//422
f 422//422 480//480 481//481
f 422//422 481//481 421//421
f 421//421 481//481 482//482
f 421//421 482//482 420//420
f 420//420 482//482 483//483
f 420//420 483//483 419//419
f 419//419 483//483 484//484
f 419//419 484//484 418//418
f 418//418 484//484 485//485
f 418//418 485//485 417//417
f 417//417 485//485 486//486
f 417//417 486//486 416//416
f 416//416 486//486 487//487
f 416//416 487//487 415//415
f 415//415 487//487 488//488
f 415//415 488//488 414//414
f 414//414 488//488 489//489
f 414//414 489//489 413//413
f 413//413 489//489 490//490
f 413//413 490//490 412//412
f 412//412 490//490 491//491
f 412//412 491//491 411//411
f 411//411 491//491 492//492
f 411//411 492//492 410//410
f 410//410 492//492 493//493
f 410//410 493//493 409//409
f 409//409 493//493 494//494
f 409//409 494//494 408//408
f 408//408 494//494 495//495
f 408//408 495//495 407//407
f 407//407 495//495 496//496
f 407//407 496//496 406//406
f 406//406 496//496 497//497
f 406//406 497//497 405//405
f 405//405 497//497 498//498
f 405//405 498//498 404//404
f 404//404 498//498 499//499
f 404//404 499//499 403//403
f 403//403 499//499 500//500
f 403//403 500//500 402//402
f 402//402 500//500 501//501
f 402//402 501//501 401//401
f 401//401 501//501 502//502
f 401//401 502//502 400//400
f 400//400 502//502 503//503
f 400//400 503//503 399//399
f 399//399 503//503 504//504
f 399//399 504//504 398//398
f 398//398 504//504 505//505
f 398//398 505//505 397//397
f 397//397 505//505 506//506
f 397//397 506//506 396//396
f 396//396 506//506 507//507
f 396//396 507//507 395//395
f 395//395 507//507 508//508
f 395//395 508//508 394//394
f 394//394 508//508 509//509
f 394//394 509//509 393//393
f 393//393 509//509 510//510
f 393//393 510//510 392//392
f 392//392 510//510 511//511
f 392//392 511//511 391//391
f 391//391 511//511 512//512
f 391//391 512//512 390//390
f 390//390 512//512 513//513
f 390//390 513//513 389//389
f 389//389 513//513 514//514
f 389//389 514//514 388//388
f 388//388 514//514 515//515
f 388//388 515//515 387//387
f 387//387 515//515 516//516
f 387//387 516//516 386//386
f 386//386 516//516 517//517
f 386//386 517//517 385//385
f 385//385 517//517 518//518
f 385//385 518//518 384//384
f 384//384 518//518 519//519
f 384//384 519//519 383//383
f 383//383 519//519 520//520
f 383//383 520//520 382//382
f 382//382 520//520 521//521
f 382//382 521//521 381//381
f 381//381 521//521 522//522
f 381//381 522//522 380//380
f 380//380 522//522 523//523
f 380//380 523//523 379//379
f 379//379 523//523 524//524
f 379//379 524//524 378//378
f 378//378 524//524 525//525
f 378//378 525//525 377//377
f 377//377 525//525 526//526
f 377//377 526//526 376//376
f 376//376 526//526 527//527
f 376//376 527//527 375//375
f 375//375 527//527 528//528
f 375//375 528//528 374//374
f 374//374 528//528 529//529
f 374//374 529//529 370//370
f 370//370 529//529 450//450
f 129//129 530//530 3//3
f 3//3 530//530 531//531
f 3//3 531//531 532//532
f 532//532 531//531 451//451
f 532//532 451//451 450//450
f 530//530 129//129 533//533
f 533//533 129//129 127//127
f 533//533 127//127 534//534
f 534//534 127//127 125//125
f 534//534 125//125 535//535
f 535//535 125//125 123//123
f 535//535 123//123 536//536
f 536//536 123//123 537//537
f 536//536 537//537 457//457
f 457//457 537//537 458//458
f 123//123 121//121 537//537
f 537//537 121//121 538//538
f 537//537 538//538 458//458
f 458//458 538//538 459//459
f 121//121 119//119 538//538
f 538//538 119//119 539//539
f 538//538 539//539 459//459
f 459//459 539//539 460//460
f 119//119 117//117 539//539
f 539//539 117//117 540//540
f 539//539 540//540 460//460
f 460//460 540//540 461//461
f 117//117 115//115 540//540
f 540//540 115//115 541//541
f 540//540 541//541 461//461
f 461//461 541//541 462//462
f 541//541 115//115 542//542
f 542//542 115//115 113//113
f 542//542 113//113 543//543
f 543//543 113//113 111//111
f 543//543 111//111 544//544
f 544//544 111//111 109//109
f 544//544 109//109 545//545
f 545//545 109//109 107//107
f 545//545 107//107 546//546
f 546//546 107//107 547//547
f 546//546 547//547 467//467
f 467//467 547//547 468//468
f 107//107 105//105 547//547
f 547//547 105//105 548//548
f 547//547 548//548 468//468
f 468//468 548//548 469//469
f 105//105 103//103 548//548
f 548//548 103//103 549//549
f 548//548 549//549 469//469
f 469//469 549//549 470//470
f 103//103 101//101 549//549
f 549//549 101//101 550//550
f 549//549 550//550 470//470
f 470//470 550//550 471//471
f 101//101 99//99 550//550
f 550//550 99//99 551//551
f 550//550 551//551 471//471
f 471//471 551//551 472//472
f 551//551 99//99 552//552
f 552//552 99//99 97//97
f 552//552 97//97 553//553
f 553//553 97//97 95//95
f 553//553 95//95 554//554
f 554//554 95//95 93//93
f 554//554 93//93 555//555
f 555//555 93//93 91//91
f 555//555 91//91 556//556
f 556//556 91//91 557//557
f 556//556 557//557 477//477
f 477//477 557//557 478//478
f 91//91 89//89 557//557
f 557//557 89//89 558//558
f 557//557 558//558 478//478
f 478//478 558//558 479//479
f 89//89 87//87 558//558
f 558//558 87//87 559//559
f 558//558 559//559 479//479
f 479//479 559//559 480//480
f 87//87 85//85 559//559
f 559//559 85//85 560//560
f 559//559 560//560 480//480
f 480//480 560//560 481//481
f 85//85 83//83 560//560
f 560//560 83//83 561//561
f 560//560 561//561 481//481
f 481//481 561//561 482//482
f 561//561 83//83 562//562
f 562//562 83//83 81//81
f 562//562 81//81 563//563
f 563//563 81//81 79//79
f 563//563 79//79 564//564
f 564//564 79//79 77//77
f 564//564 77//77 565//565
f 565//565 77//77 75//75
f 565//565 75//75 566//566
f 566//566 75//75 567//567
f 566//566 567//567 487//487
f 487//487 567//567 488//488
f 75//75 73//73 567//567
f 567//567 73//73 568//568
f 567//567 568//568 488//488
f 488//488 568//568 489//489
f 73//73 71//71 568//568
f 568//568 71//71 569//569
f 568//568 569//569 489//489
f 489//489 569//569 490//490
f 71//71 69//69 569//569
f 569//569 69//69 570//570
f 569//569 570//570 490//490
f 490//490 570//570 491//491
f 69//69 67//67 570//570
f 570//570 67//67 571//571
f 570//570 571//571 491//491
f 491//491 571//571 492//492
f 571//571 67//67 572//572
f 572//572 67//67 65//65
f 572//572 65//65 573//573
f 573//573 65//65 63//63
f 573//573 63//63 574//574
f 574//574 63//63 61//61
f 574//574 61//61 575//575
f 575//575 61//61 59//59
f 575//575 59//59 576//576
f 576//576 59//59 577//577
f 576//576 577//577 497//497
f 497//497 577//577 498//498
f 59//59 57//57 577//577
f 577//577 57//57 578//578
f 577//577 578//578 498//498
f 498//498 578//578 499//499
f 57//57 55//55 578//578
f 578//578 55//55 579//579
f 578//578 579//579 499//499
f 499//499 579//579 500//500
f 55//55 53//53 579//579
f 579//579 53//53 580//580
f 579//579 580//580 500//500
f 500//500 580//580 501//501
f 53//53 51//51 580//580
f 580//580 51//51 581//581
f 580//580 581//581 501//501
f 501//501 581//581 502//502
f 581//581 51//51 582//582
f 582//582 51//51 49//49
f 582//582 49//49 583//583
f 583//583 49//49 47//47
f 583//583 47//47 584//584
f 584//584 47//47 45//45
f 584//584 45//45 585//585
f 585//585 45//45 43//43
f 585//585 43//43 586//586
f 586//586 43//43 587//587
f 586//586 587//587 507//507
f 507//507 587//587 508//508
f 43//43 41//41 587//587
f 587//587 41//41 588//588
f 587//587 588//588 508//508
f 508//508 588//588 509//509
f 41//41 39//39 588//588
f 588//588 39//39 589//589
f 588//588 589//589 509//509
f 509//509 589//589 510//510
f 39//39 37//37 589//589
f 589//589 37//37 590//590
f 589//589 590//590 510//510
f 510//510 590//590 511//511
f 37//37 35//35 590//590
f 590//590 35//35 591//591
f 590//590 591//591 511//511
f 511//511 591//591 512//512
f 591//591 35//35 592//592
f 592//592 35//35 33//33
f 592//592 33//33 593//593
f 593//593 33//33 31//31
f 593//593 31//31 594//594
f 594//594 31//31 29//29
f 594//594 29//29 595//595
f 595//595 29//29 27//27
f 595//595 27//27 596//596
f 596//596 27//27 597//597
f 596//596 597//597 517//517
f 517//517 597//597 518//518
f 27//27 25//25 597//597
f 597//597 25//25 598//598
f 597//597 598//598 518//518
f 518//518 598//598 519//519
f 25//25 23//23 598//598
f 598//598 23//23 599//599
f 598//598 599//599 519//519
f 519//519 599//599 520//520
f 23//23 21//21 599//599
f 599//599 21//21 600//600
f 599//599 600//600 520//520
f 520//520 600//600 521//521
f 21//21 19//19 600//600
f 600//600 19//19 601//601
f 600//600 601//601 521//521
f 521//521 601//601 522//522
f 601//601 19//19 602//602
f 602//602 19//19 17//17
f 602//602 17//17 603//603
f 603//603 17//17 15//15
f 603//603 15//15 604//604
f 604//604 15//15 13//13
f 604//604 13//13 605//605
f 605//605 13//13 11//11
f 605//605 11//11 606//606
f 606//606 11//11 607//607
f 606//606 607//607 527//527
f 527//527 607//607 528//528
f 11//11 9//9 607//607
f 607//607 9//9 608//608
f 607//607 608//608 528//528
f 528//528 608//608 529//529
f 9//9 7//7 608//608
f 608//608 7//7 609//609
f 608//608 609//609 529//529
f 529//529 609//609 450//450
f 7//7 1//1 609//609
f 609//609 1//1 532//532
f 609//609 532//532 450//450
f 1//1 3//3 532//532
f 492//492 571//571 572//572
f 452//452 451//451 531//531
f 452//452 531//531 530//530
f 606//606 527//527 526//526
f 605//605 606//606 526//526
f 605//605 526//526 525//525
f 604//604 605//605 525//525
f 604//604 525//525 524//524
f 603//603 604//604 524//524
f 603//603 524//524 523//523
f 602//602 603//603 523//523
f 602//602 523//523 522//522
f 601//601 602//602 522//522
f 596//596 517//517 516//516
f 595//595 596//596 516//516
f 595//595 516//516 515//515
f 594//594 595//595 515//515
f 594//594 515//515 514//514
f 593//593 594//594 514//514
f 593//593 514//514 513//513
f 592//592 593//593 513//513
f 592//592 513//513 512//512
f 591//591 592//592 512//512
f 586//586 507//507 506//506
f 585//585 586//586 506//506
f 585//585 506//506 505//505
f 584//584 585//585 505//505
f 584//584 505//505 504//504
f 583//583 584//584 504//504
f 583//583 504//504 503//503
f 582//582 583//583 503//503
f 582//582 503//503 502//502
f 581//581 582//582 502//502
f 576//576 497//497 496//496
f 575//575 576//576 496//496
f 575//575 496//496 495//495
f 574//574 575//575 495//495
f 574//574 495//495 494//494
f 573//573 574//574 494//494
f 573//573 494//494 493//493
f 572//572 573//573 493//493
f 572//572 493//493 492//492
f 566//566 487//487 486//486
f 565//565 566//566 486//486
f 565//565 486//486 485//485
f 564//564 565//565 485//485
f 564//564 485//485 484//484
f 563//563 564//564 484//484
f 563//563 484//484 483//483
f 562//562 563//563 483//483
f 562//562 483//483 482//482
f 561//561 562//562 482//482
f 556//556 477//477 476//476
f 555//555 556//556 476//476
f 555//555 476//476 475//475
f 554//554 555//555 475//475
f 554//554 475//475 474//474
f 553//553 554//554 474//474
f 553//553 474//474 473//473
f 552//552 553//553 473//473
f 552//552 473//473 472//472
f 551//551 552//552 472//472
f 546//546 467//467 466//466
f 545//545 546//546 466//466
f 545//545 466//466 465//465
f 544//544 545//545 465//465
f 544//544 465//465 464//464
f 543//543 544//544 464//464
f 543//543 464//464 463//463
f 542//542 543//543 463//463
f 542//542 463//463 462//462
f 541//541 542//542 462//462
f 536//536 457//457 456//456
f 535//535 536//536 456//456
f 535//535 456//456 455//455
f 534//534 535//535 455//455
f 534//534 455//455 454//454
f 533//533 534//534 454//454
f 533//533 454//454 453//453
f 530//530 533//533 453//453
f 530//530 453//453 452//452
